<?xml version="1.0" encoding="UTF-8" standalone="no"?>
<!-- Created with Inkscape (http://www.inkscape.org/) -->

<svg
   version="1.1"
   id="svg1"
   width="11664"
   height="9456"
   viewBox="0 0 11664 9456"
   xmlns="http://www.w3.org/2000/svg"
   xmlns:svg="http://www.w3.org/2000/svg">
  <defs
     id="defs1">
    <mask
       maskUnits="userSpaceOnUse"
       x="0"
       y="0"
       width="1"
       height="1"
       id="mask14">
      <path
         id="path17"
         d="M -32768,32767 H 32767 V -32768 H -32768 Z"
         style="fill:url(#radialGradient17);stroke:none" />
    </mask>
    <radialGradient
       fx="-0.34584501"
       fy="0.00142292"
       cx="0"
       cy="0"
       r="1"
       gradientUnits="userSpaceOnUse"
       gradientTransform="matrix(13860.689,0,0,-16227.378,4393.8379,3546)"
       spreadMethod="pad"
       id="radialGradient17">
      <stop
         style="stop-opacity:0;stop-color:#ffffff"
         offset="0"
         id="stop14" />
      <stop
         style="stop-opacity:0;stop-color:#ffffff"
         offset="0.180799"
         id="stop15" />
      <stop
         style="stop-opacity:1;stop-color:#ffffff"
         offset="0.49073377"
         id="stop16" />
      <stop
         style="stop-opacity:1;stop-color:#ffffff"
         offset="1"
         id="stop17" />
    </radialGradient>
    <radialGradient
       fx="-0.34584501"
       fy="0.00142292"
       cx="0"
       cy="0"
       r="1"
       gradientUnits="userSpaceOnUse"
       gradientTransform="matrix(13860.689,0,0,-16227.378,4393.8379,3546)"
       spreadMethod="pad"
       id="radialGradient21">
      <stop
         style="stop-opacity:1;stop-color:#dbdad8"
         offset="0"
         id="stop18" />
      <stop
         style="stop-opacity:1;stop-color:#dbdad8"
         offset="0.180799"
         id="stop19" />
      <stop
         style="stop-opacity:1;stop-color:#dbdad8"
         offset="0.49073377"
         id="stop20" />
      <stop
         style="stop-opacity:1;stop-color:#dbdad8"
         offset="1"
         id="stop21" />
    </radialGradient>
    <clipPath
       clipPathUnits="userSpaceOnUse"
       id="clipPath22">
      <path
         d="m 288.55867,7408.6773 22.15466,-22.152 -22.15466,-22.1506 -22.15334,22.1506 z m 0,-5317.0413 22.15466,-22.152 -22.15466,-22.1613 -22.15334,22.1613 z m 0,4873.9587 22.15466,-22.1614 -22.15466,-22.1506 -22.15334,22.1506 z m 0,-4430.876 22.15466,-22.152 -22.15466,-22.152 -22.15334,22.152 z m 0,3987.784 22.15466,-22.152 -22.15466,-22.152 -22.15334,22.152 z m 0,-3544.692 22.15466,-22.1614 -22.15466,-22.152 -22.15334,22.152 z m 0,3101.6093 22.15466,-22.1613 -22.15466,-22.152 -22.15334,22.152 z m 0,-2658.5267 22.15466,-22.152 -22.15466,-22.152 -22.15334,22.152 z m 0,2215.4334 22.15466,-22.1507 -22.15466,-22.152 -22.15334,22.152 z m 0,-1772.3414 22.15466,-22.16 -22.15466,-22.152 -22.15334,22.152 z m 0,1329.2587 22.15466,-22.152 -22.15466,-22.1613 -22.15334,22.1613 z m 0,-886.1747 22.15466,-22.152 -22.15466,-22.152 -22.15334,22.152 z m 0,443.092 L 310.71333,4728 288.55867,4705.848 266.40533,4728 Z m 0,3943.472 22.15466,22.1507 -22.15466,22.1613 -22.15334,-22.1613 z m 0,-7931.2613 22.15466,-22.15467 -22.15466,-22.15466 -22.15334,22.15466 z m 0,7488.168 22.15466,22.1613 -22.15466,22.152 -22.15334,-22.152 z m 0,-7045.08 22.15466,-22.152 -22.15466,-22.1613 -22.15334,22.1613 z m 0,6601.9973 22.15466,22.152 -22.15466,22.1507 -22.15334,-22.1507 z m 0,-6158.9146 22.15466,-22.152 -22.15466,-22.1507 -22.15334,22.1507 z m 0,7488.1733 22.15466,22.16 -22.15466,22.152 -22.15334,-22.152 z m 0,-8817.432 22.15466,-22.15333 -22.15466,-22.156 -22.15334,22.156 z m 440.732,7089.3933 22.15466,-22.152 -22.15466,-22.1506 -22.15334,22.1506 z m 0,-5317.0413 22.15466,-22.152 -22.15466,-22.1613 -22.15334,22.1613 z m 0,4873.9587 22.15466,-22.1614 -22.15466,-22.1506 -22.15334,22.1506 z m 0,-4430.876 22.15466,-22.152 -22.15466,-22.152 -22.15334,22.152 z m 0,3987.784 22.15466,-22.152 -22.15466,-22.152 -22.15334,22.152 z m 0,-3544.692 22.15466,-22.1614 -22.15466,-22.152 -22.15334,22.152 z m 0,3101.6093 22.15466,-22.1613 -22.15466,-22.152 -22.15334,22.152 z m 0,-2658.5267 22.15466,-22.152 -22.15466,-22.152 -22.15334,22.152 z m 0,2215.4334 22.15466,-22.1507 -22.15466,-22.152 -22.15334,22.152 z m 0,-1772.3414 22.15466,-22.16 -22.15466,-22.152 -22.15334,22.152 z m 0,1329.2587 22.15466,-22.152 -22.15466,-22.1613 -22.15334,22.1613 z m 0,-886.1747 22.15466,-22.152 -22.15466,-22.152 -22.15334,22.152 z m 0,443.092 L 751.44533,4728 729.29067,4705.848 707.13733,4728 Z m 0,3943.472 22.15466,22.1507 -22.15466,22.1613 -22.15334,-22.1613 z m 0,-7931.2613 22.15466,-22.15467 -22.15466,-22.15466 -22.15334,22.15466 z m 0,7488.168 22.15466,22.1613 -22.15466,22.152 -22.15334,-22.152 z m 0,-7045.08 22.15466,-22.152 -22.15466,-22.1613 -22.15334,22.1613 z m 0,6601.9973 22.15466,22.152 -22.15466,22.1507 -22.15334,-22.1507 z m 0,-6158.9146 22.15466,-22.152 -22.15466,-22.1507 -22.15334,22.1507 z m 0,7488.1733 22.15466,22.16 -22.15466,22.152 -22.15334,-22.152 z m 0,-8817.432 22.15466,-22.15333 -22.15466,-22.156 -22.15334,22.156 z m 0,7089.3933 22.15466,-22.152 -22.15466,-22.1506 -22.15334,22.1506 z m 0,-5317.0413 22.15466,-22.152 -22.15466,-22.1613 -22.15334,22.1613 z m 0,4873.9587 22.15466,-22.1614 -22.15466,-22.1506 -22.15334,22.1506 z m 0,-4430.876 22.15466,-22.152 -22.15466,-22.152 -22.15334,22.152 z m 0,3987.784 22.15466,-22.152 -22.15466,-22.152 -22.15334,22.152 z m 0,-3544.692 22.15466,-22.1614 -22.15466,-22.152 -22.15334,22.152 z m 0,3101.6093 22.15466,-22.1613 -22.15466,-22.152 -22.15334,22.152 z m 0,-2658.5267 22.15466,-22.152 -22.15466,-22.152 -22.15334,22.152 z m 0,2215.4334 22.15466,-22.1507 -22.15466,-22.152 -22.15334,22.152 z m 0,-1772.3414 22.15466,-22.16 -22.15466,-22.152 -22.15334,22.152 z m 0,1329.2587 22.15466,-22.152 -22.15466,-22.1613 -22.15334,22.1613 z m 0,-886.1747 22.15466,-22.152 -22.15466,-22.152 -22.15334,22.152 z m 0,443.092 L 751.44533,4728 729.29067,4705.848 707.13733,4728 Z m 0,3943.472 22.15466,22.1507 -22.15466,22.1613 -22.15334,-22.1613 z m 0,-7931.2613 22.15466,-22.15467 -22.15466,-22.15466 -22.15334,22.15466 z m 0,7488.168 22.15466,22.1613 -22.15466,22.152 -22.15334,-22.152 z m 0,-7045.08 22.15466,-22.152 -22.15466,-22.1613 -22.15334,22.1613 z m 0,6601.9973 22.15466,22.152 -22.15466,22.1507 -22.15334,-22.1507 z m 0,-6158.9146 22.15466,-22.152 -22.15466,-22.1507 -22.15334,22.1507 z m 0,7488.1733 22.15466,22.16 -22.15466,22.152 -22.15334,-22.152 z m 0,-8817.432 22.15466,-22.15333 -22.15466,-22.156 -22.15334,22.156 z m 440.73333,7089.3933 22.1547,-22.152 -22.1547,-22.1506 -22.1533,22.1506 z m 0,-5317.0413 22.1547,-22.152 -22.1547,-22.1613 -22.1533,22.1613 z m 0,4873.9587 22.1547,-22.1614 -22.1547,-22.1506 -22.1533,22.1506 z m 0,-4430.876 22.1547,-22.152 -22.1547,-22.152 -22.1533,22.152 z m 0,3987.784 22.1547,-22.152 -22.1547,-22.152 -22.1533,22.152 z m 0,-3544.692 22.1547,-22.1614 -22.1547,-22.152 -22.1533,22.152 z m 0,3101.6093 22.1547,-22.1613 -22.1547,-22.152 -22.1533,22.152 z m 0,-2658.5267 22.1547,-22.152 -22.1547,-22.152 -22.1533,22.152 z m 0,2215.4334 22.1547,-22.1507 -22.1547,-22.152 -22.1533,22.152 z m 0,-1772.3414 22.1547,-22.16 -22.1547,-22.152 -22.1533,22.152 z m 0,1329.2587 22.1547,-22.152 -22.1547,-22.1613 -22.1533,22.1613 z m 0,-886.1747 22.1547,-22.152 -22.1547,-22.152 -22.1533,22.152 z m 0,443.092 22.1547,-22.1613 -22.1547,-22.152 -22.1533,22.152 z m 0,3943.472 22.1547,22.1507 -22.1547,22.1613 -22.1533,-22.1613 z m 0,-7931.2613 22.1547,-22.15467 -22.1547,-22.15466 -22.1533,22.15466 z m 0,7488.168 22.1547,22.1613 -22.1547,22.152 -22.1533,-22.152 z m 0,-7045.08 22.1547,-22.152 -22.1547,-22.1613 -22.1533,22.1613 z m 0,6601.9973 22.1547,22.152 -22.1547,22.1507 -22.1533,-22.1507 z m 0,-6158.9146 22.1547,-22.152 -22.1547,-22.1507 -22.1533,22.1507 z m 0,7488.1733 22.1547,22.16 -22.1547,22.152 -22.1533,-22.152 z m 0,-8817.432 22.1547,-22.15333 -22.1547,-22.156 -22.1533,22.156 z m 0,7089.3933 22.1547,-22.152 -22.1547,-22.1506 -22.1533,22.1506 z m 0,-5317.0413 22.1547,-22.152 -22.1547,-22.1613 -22.1533,22.1613 z m 0,4873.9587 22.1547,-22.1614 -22.1547,-22.1506 -22.1533,22.1506 z m 0,-4430.876 22.1547,-22.152 -22.1547,-22.152 -22.1533,22.152 z m 0,3987.784 22.1547,-22.152 -22.1547,-22.152 -22.1533,22.152 z m 0,-3544.692 22.1547,-22.1614 -22.1547,-22.152 -22.1533,22.152 z m 0,3101.6093 22.1547,-22.1613 -22.1547,-22.152 -22.1533,22.152 z m 0,-2658.5267 22.1547,-22.152 -22.1547,-22.152 -22.1533,22.152 z m 0,2215.4334 22.1547,-22.1507 -22.1547,-22.152 -22.1533,22.152 z m 0,-1772.3414 22.1547,-22.16 -22.1547,-22.152 -22.1533,22.152 z m 0,1329.2587 22.1547,-22.152 -22.1547,-22.1613 -22.1533,22.1613 z m 0,-886.1747 22.1547,-22.152 -22.1547,-22.152 -22.1533,22.152 z m 0,443.092 22.1547,-22.1613 -22.1547,-22.152 -22.1533,22.152 z m 0,3943.472 22.1547,22.1507 -22.1547,22.1613 -22.1533,-22.1613 z m 0,-7931.2613 22.1547,-22.15467 -22.1547,-22.15466 -22.1533,22.15466 z m 0,7488.168 22.1547,22.1613 -22.1547,22.152 -22.1533,-22.152 z m 0,-7045.08 22.1547,-22.152 -22.1547,-22.1613 -22.1533,22.1613 z m 0,6601.9973 22.1547,22.152 -22.1547,22.1507 -22.1533,-22.1507 z m 0,-6158.9146 22.1547,-22.152 -22.1547,-22.1507 -22.1533,22.1507 z m 0,7488.1733 22.1547,22.16 -22.1547,22.152 -22.1533,-22.152 z m 0,-8817.432 22.1547,-22.15333 -22.1547,-22.156 -22.1533,22.156 z m 440.732,7089.3933 22.1547,-22.152 -22.1547,-22.1506 -22.1533,22.1506 z m 0,-5317.0413 22.1547,-22.152 -22.1547,-22.1613 -22.1533,22.1613 z m 0,4873.9587 22.1547,-22.1614 -22.1547,-22.1506 -22.1533,22.1506 z m 0,-4430.876 22.1547,-22.152 -22.1547,-22.152 -22.1533,22.152 z m 0,3987.784 22.1547,-22.152 -22.1547,-22.152 -22.1533,22.152 z m 0,-3544.692 22.1547,-22.1614 -22.1547,-22.152 -22.1533,22.152 z m 0,3101.6093 22.1547,-22.1613 -22.1547,-22.152 -22.1533,22.152 z m 0,-2658.5267 22.1547,-22.152 -22.1547,-22.152 -22.1533,22.152 z m 0,2215.4334 22.1547,-22.1507 -22.1547,-22.152 -22.1533,22.152 z m 0,-1772.3414 22.1547,-22.16 -22.1547,-22.152 -22.1533,22.152 z m 0,1329.2587 22.1547,-22.152 -22.1547,-22.1613 -22.1533,22.1613 z m 0,-886.1747 22.1547,-22.152 -22.1547,-22.152 -22.1533,22.152 z m 0,443.092 22.1547,-22.1613 -22.1547,-22.152 -22.1533,22.152 z m 0,3943.472 22.1547,22.1507 -22.1547,22.1613 -22.1533,-22.1613 z m 0,-7931.2613 22.1547,-22.15467 -22.1547,-22.15466 -22.1533,22.15466 z m 0,7488.168 22.1547,22.1613 -22.1547,22.152 -22.1533,-22.152 z m 0,-7045.08 22.1547,-22.152 -22.1547,-22.1613 -22.1533,22.1613 z m 0,6601.9973 22.1547,22.152 -22.1547,22.1507 -22.1533,-22.1507 z m 0,-6158.9146 22.1547,-22.152 -22.1547,-22.1507 -22.1533,22.1507 z m 0,7488.1733 22.1547,22.16 -22.1547,22.152 -22.1533,-22.152 z m 0,-8817.432 22.1547,-22.15333 -22.1547,-22.156 -22.1533,22.156 z m 9737.273,8374.3493 22.163,22.1507 -22.163,22.152 -22.152,-22.152 z m 0,-7931.2613 22.163,-22.15467 -22.163,-22.15466 -22.152,22.15466 z m 0,7488.168 22.163,22.1613 -22.163,22.152 -22.152,-22.152 z m 0,-7045.08 22.163,-22.152 -22.163,-22.1613 -22.152,22.1613 z m 0,6601.9973 22.163,22.152 -22.163,22.1507 -22.152,-22.1507 z m 0,-6158.9146 22.163,-22.152 -22.163,-22.1507 -22.152,22.1507 z m 0,5715.8226 22.163,22.16 -22.163,22.152 -22.152,-22.152 z m 0,-5272.7293 22.163,-22.152 -22.163,-22.1613 -22.152,22.1613 z m 0,4829.6467 22.163,22.1506 -22.163,22.1614 -22.152,-22.1614 z m 0,-4386.564 22.163,-22.152 -22.163,-22.152 -22.152,22.152 z m 0,3943.48 22.163,22.152 -22.163,22.152 -22.152,-22.152 z m 0,-3500.388 22.163,-22.1614 -22.163,-22.152 -22.152,22.152 z m 0,3057.296 22.163,22.152 -22.163,22.1613 -22.152,-22.1613 z m 0,-2614.2134 22.163,-22.152 -22.163,-22.152 -22.152,22.152 z m 0,2171.1307 22.163,22.152 -22.163,22.1507 -22.152,-22.1507 z m 0,-1728.0387 22.163,-22.16 -22.163,-22.152 -22.152,22.152 z m 0,1284.9454 22.163,22.1613 -22.163,22.152 -22.152,-22.152 z m 0,-841.8614 22.163,-22.152 -22.163,-22.152 -22.152,22.152 z m -6203.2263,443.092 22.152,-22.1613 -22.152,-22.152 -22.152,22.152 z m 6203.2263,4386.5547 22.163,22.16 -22.163,22.152 -22.152,-22.152 z m 0,-8817.432 22.163,-22.15333 -22.163,-22.156 -22.152,22.156 z m -443.082,8374.3493 22.152,22.1507 -22.152,22.152 -22.152,-22.152 z m 0,-7931.2613 22.152,-22.15467 -22.152,-22.15466 -22.152,22.15466 z m 0,7488.168 22.152,22.1613 -22.152,22.152 -22.152,-22.152 z m 0,-7045.08 22.152,-22.152 -22.152,-22.1613 -22.152,22.1613 z m 0,6601.9973 22.152,22.152 -22.152,22.1507 -22.152,-22.1507 z m 0,-6158.9146 22.152,-22.152 -22.152,-22.1507 -22.152,22.1507 z m 0,5715.8226 22.152,22.16 -22.152,22.152 -22.152,-22.152 z m 0,-5272.7293 22.152,-22.152 -22.152,-22.1613 -22.152,22.1613 z m 0,4829.6467 22.152,22.1506 -22.152,22.1614 -22.152,-22.1614 z m 0,-4386.564 22.152,-22.152 -22.152,-22.152 -22.152,22.152 z m 0,3943.48 22.152,22.152 -22.152,22.152 -22.152,-22.152 z m 0,-3500.388 22.152,-22.1614 -22.152,-22.152 -22.152,22.152 z m 0,3057.296 22.152,22.152 -22.152,22.1613 -22.152,-22.1613 z m 0,-2614.2134 22.152,-22.152 -22.152,-22.152 -22.152,22.152 z m 0,2171.1307 22.152,22.152 -22.152,22.1507 -22.152,-22.1507 z m 0,-1728.0387 22.152,-22.16 -22.152,-22.152 -22.152,22.152 z m -6203.2363,1329.2587 22.16,-22.152 -22.16,-22.1613 -22.152,22.1613 z m 0,-886.1747 22.16,-22.152 -22.16,-22.152 -22.152,22.152 z m 0,443.092 22.16,-22.1613 -22.16,-22.152 -22.152,22.152 z m 5760.1533,3943.472 22.151,22.1507 -22.151,22.152 -22.161,-22.152 z m 0,-7931.2613 22.151,-22.15467 -22.151,-22.15466 -22.161,22.15466 z m 0,7488.168 22.151,22.1613 -22.151,22.152 -22.161,-22.152 z m 0,-7045.08 22.151,-22.152 -22.151,-22.1613 -22.161,22.1613 z m 0,6601.9973 22.151,22.152 -22.151,22.1507 -22.161,-22.1507 z m 0,-6158.9146 22.151,-22.152 -22.151,-22.1507 -22.161,22.1507 z m 0,5715.8226 22.151,22.16 -22.151,22.152 -22.161,-22.152 z m 0,-5272.7293 22.151,-22.152 -22.151,-22.1613 -22.161,22.1613 z m 0,4829.6467 22.151,22.1506 -22.151,22.1614 -22.161,-22.1614 z m 0,-4386.564 22.151,-22.152 -22.151,-22.152 -22.161,22.152 z m 0,3943.48 22.151,22.152 -22.151,22.152 -22.161,-22.152 z m 0,-3500.388 22.151,-22.1614 -22.151,-22.152 -22.161,22.152 z m 0,3057.296 22.151,22.152 -22.151,22.1613 -22.161,-22.1613 z m 0,-2614.2134 22.151,-22.152 -22.151,-22.152 -22.161,22.152 z m -6203.228,2215.4334 22.152,-22.1507 -22.152,-22.152 -22.1507,22.152 z m 0,-1772.3414 22.152,-22.16 -22.152,-22.152 -22.1507,22.152 z m 0,1329.2587 22.152,-22.152 -22.152,-22.1613 -22.1507,22.1613 z m 0,-886.1747 22.152,-22.152 -22.152,-22.152 -22.1507,22.152 z m 0,443.092 22.152,-22.1613 -22.152,-22.152 -22.1507,22.152 z m 5760.136,3943.472 22.151,22.1507 -22.151,22.152 -22.152,-22.152 z m 0,-7931.2613 22.151,-22.15467 -22.151,-22.15466 -22.152,22.15466 z m 0,7488.168 22.151,22.1613 -22.151,22.152 -22.152,-22.152 z m 0,-7045.08 22.151,-22.152 -22.151,-22.1613 -22.152,22.1613 z m 0,6601.9973 22.151,22.152 -22.151,22.1507 -22.152,-22.1507 z m 0,-6158.9146 22.151,-22.152 -22.151,-22.1507 -22.152,22.1507 z m 0,5715.8226 22.151,22.16 -22.151,22.152 -22.152,-22.152 z m 0,-5272.7293 22.151,-22.152 -22.151,-22.1613 -22.152,22.1613 z M 11348.029,4830.4667 11450.496,4728 11348.029,4625.5333 11245.564,4728 Z m -1329.257,2090.816 22.151,22.1506 -22.151,22.1614 -22.152,-22.1614 z m 0,-4386.564 22.151,-22.152 -22.151,-22.152 -22.152,22.152 z m 0,3943.48 22.151,22.152 -22.151,22.152 -22.152,-22.152 z m 0,-3500.388 22.151,-22.1614 -22.151,-22.152 -22.152,22.152 z M 3815.5533,6079.42 l 22.152,-22.1613 -22.152,-22.152 -22.1613,22.152 z m 0,-2658.5267 22.152,-22.152 -22.152,-22.152 -22.1613,22.152 z m 0,2215.4334 22.152,-22.1507 -22.152,-22.152 -22.1613,22.152 z m 0,-1772.3414 22.152,-22.16 -22.152,-22.152 -22.1613,22.152 z m 0,1329.2587 22.152,-22.152 -22.152,-22.1613 -22.1613,22.1613 z m 0,-886.1747 22.152,-22.152 -22.152,-22.152 -22.1613,22.152 z m 0,443.092 22.152,-22.1613 -22.152,-22.152 -22.1613,22.152 z m 5760.136,3943.472 22.1507,22.1507 -22.1507,22.152 -22.1613,-22.152 z m 0,-7931.2613 22.1507,-22.15467 -22.1507,-22.15466 -22.1613,22.15466 z m 0,7488.168 22.1507,22.1613 -22.1507,22.152 -22.1613,-22.152 z m 0,-7045.08 22.1507,-22.152 -22.1507,-22.1613 -22.1613,22.1613 z m 0,6601.9973 22.1507,22.152 -22.1507,22.1507 -22.1613,-22.1507 z m 0,-6158.9146 22.1507,-22.152 -22.1507,-22.1507 -22.1613,22.1507 z m 0,5715.8226 22.1507,22.16 -22.1507,22.152 -22.1613,-22.152 z m 1329.2577,-2295.74 102.457,102.4667 -102.457,102.4573 -102.467,-102.4573 z m 0,-681.2506 102.457,-102.4574 -102.457,-102.4666 -102.467,102.4666 z m -0.01,437.5533 96.928,-96.928 -96.928,-96.9187 -96.918,96.9187 z m -1329.2477,-2733.292 22.1507,-22.152 -22.1507,-22.1613 -22.1613,22.1613 z m 0,4829.6467 22.1507,22.1506 -22.1507,22.1614 -22.1613,-22.1614 z m 0,-4386.564 22.1507,-22.152 -22.1507,-22.152 -22.1613,22.152 z m -6203.228,3987.784 22.152,-22.152 -22.152,-22.152 -22.152,22.152 z m 0,-3544.692 22.152,-22.1614 -22.152,-22.152 -22.152,22.152 z m 0,3101.6093 22.152,-22.1613 -22.152,-22.152 -22.152,22.152 z m 0,-2658.5267 22.152,-22.152 -22.152,-22.152 -22.152,22.152 z m 0,2215.4334 22.152,-22.1507 -22.152,-22.152 -22.152,22.152 z m 0,-1772.3414 22.152,-22.16 -22.152,-22.152 -22.152,22.152 z m 0,1329.2587 22.152,-22.152 -22.152,-22.1613 -22.152,22.1613 z m 0,-886.1747 22.152,-22.152 -22.152,-22.152 -22.152,22.152 z m 0,443.092 22.152,-22.1613 -22.152,-22.152 -22.152,22.152 z m 5760.1347,3943.472 22.152,22.1507 -22.152,22.152 -22.152,-22.152 z m 0,-7931.2613 22.152,-22.15467 -22.152,-22.15466 -22.152,22.15466 z m 1329.259,4749.3373 102.466,102.4667 -102.466,102.4653 -102.466,-102.4653 z m 0,-1567.4186 102.466,-102.4654 -102.466,-102.4573 -102.466,102.4573 z m 0,1129.8733 96.918,96.928 -96.918,96.9187 -96.93,-96.9187 z m 0,-692.3187 96.918,-96.928 -96.918,-96.928 -96.93,96.928 z m 0,429.2334 83.078,-83.0787 -83.078,-83.0787 -83.079,83.0787 z M 9132.596,8250.54 l 22.152,22.1613 -22.152,22.152 -22.152,-22.152 z m 0,-7045.08 22.152,-22.152 -22.152,-22.1613 -22.152,22.1613 z m 0,6601.9973 22.152,22.152 -22.152,22.1507 -22.152,-22.1507 z m 0,-6158.9146 22.152,-22.152 -22.152,-22.1507 -22.152,22.1507 z m 0,5715.8226 22.152,22.16 -22.152,22.152 -22.152,-22.152 z m 0,-5272.7293 22.152,-22.152 -22.152,-22.1613 -22.152,22.1613 z m -6203.2213,4873.9587 22.1546,-22.1614 -22.1546,-22.1506 -22.1547,22.1506 z m 0,-4430.876 22.1546,-22.152 -22.1546,-22.152 -22.1547,22.152 z m 0,3987.784 22.1546,-22.152 -22.1546,-22.152 -22.1547,22.152 z m 0,-3544.692 22.1546,-22.1614 -22.1546,-22.152 -22.1547,22.152 z m 0,3101.6093 22.1546,-22.1613 -22.1546,-22.152 -22.1547,22.152 z m 0,-2658.5267 22.1546,-22.152 -22.1546,-22.152 -22.1547,22.152 z m 0,2215.4334 22.1546,-22.1507 -22.1546,-22.152 -22.1547,22.152 z m 0,-1772.3414 22.1546,-22.16 -22.1546,-22.152 -22.1547,22.152 z m 0,1329.2587 22.1546,-22.152 -22.1546,-22.1613 -22.1547,22.1613 z m 0,-886.1747 22.1546,-22.152 -22.1546,-22.152 -22.1547,22.152 z m 0,443.092 L 2951.5293,4728 2929.3747,4705.848 2907.22,4728 Z m 0,3943.472 22.1546,22.1507 -22.1546,22.1613 -22.1547,-22.1613 z m 0,-7931.2613 22.1546,-22.15467 -22.1546,-22.15466 -22.1547,22.15466 z m 0,7488.168 22.1546,22.1613 -22.1546,22.152 -22.1547,-22.152 z m 0,-7045.08 22.1546,-22.152 -22.1546,-22.1613 -22.1547,22.1613 z m 0,6601.9973 22.1546,22.152 -22.1546,22.1507 -22.1547,-22.1507 z m 0,-6158.9146 22.1546,-22.152 -22.1546,-22.1507 -22.1547,22.1507 z m 0,5760.1346 22.1546,-22.152 -22.1546,-22.1506 -22.1547,22.1506 z m 0,-5317.0413 22.1546,-22.152 -22.1546,-22.1613 -22.1547,22.1613 z m 0,7045.08 22.1546,22.16 -22.1546,22.152 -22.1547,-22.152 z m 0,-8817.432 22.1546,-22.15333 -22.1546,-22.156 -22.1547,22.156 z m 7089.3973,5635.5173 102.456,102.4667 -102.456,102.456 -102.4667,-102.456 z m 0,-2453.5933 102.456,-102.4667 -102.456,-102.4653 -102.4667,102.4653 z m -0.01,2016.0387 96.93,96.9293 -96.93,96.928 -96.9183,-96.928 z m 0,-1578.4934 96.93,-96.928 -96.93,-96.92 -96.9183,96.92 z m 0.01,1149.26 83.077,83.0787 -83.077,83.0787 -83.0787,-83.0787 z m 0,-720.0173 83.077,-83.0787 -83.077,-83.0786 -83.0787,83.0786 z m -0.01,432.0067 72.004,-72.0027 -72.004,-72.0027 -72.0023,72.0027 z m -1329.2477,3893.6306 22.152,22.1507 -22.152,22.152 -22.1613,-22.152 z m 0,-7931.2613 22.152,-22.15467 -22.152,-22.15466 -22.1613,22.15466 z m 0,7488.168 22.152,22.1613 -22.152,22.152 -22.1613,-22.152 z m 0,-7045.08 22.152,-22.152 -22.152,-22.1613 -22.1613,22.1613 z m 0,6601.9973 22.152,22.152 -22.152,22.1507 -22.1613,-22.1507 z m 886.1654,-1409.572 102.4666,102.4654 -102.4666,102.4666 -102.4654,-102.4666 z m 0,-3339.7693 102.4666,-102.4667 -102.4666,-102.456 -102.4654,102.456 z m 0,2902.224 96.9293,96.9187 -96.9293,96.928 -96.928,-96.928 z m 0,-2464.6707 96.9293,-96.928 -96.9293,-96.928 -96.928,96.928 z m 0,2035.428 83.0786,83.0787 -83.0786,83.0787 -83.0774,-83.0787 z m 0,-1606.1933 83.0786,-83.0787 -83.0786,-83.0786 -83.0774,83.0786 z m 0,1174.1853 72.0026,72.0027 -72.0026,72.0027 -72.0027,-72.0027 z m 0,-742.1693 72.0026,-72.0027 -72.0026,-72.0026 -72.0027,72.0026 z m 0,432.0067 60.928,-60.9267 -60.928,-60.9267 L 9514.752,4728 Z m -886.1654,-3140.384 22.152,-22.152 -22.152,-22.1507 -22.1613,22.1507 z m -7078.7573,5760.1346 22.1547,-22.152 -22.1547,-22.1506 -22.1533,22.1506 z m 0,-5317.0413 22.1547,-22.152 -22.1547,-22.1613 -22.1533,22.1613 z m 0,4873.9587 22.1547,-22.1614 -22.1547,-22.1506 -22.1533,22.1506 z m 0,-4430.876 22.1547,-22.152 -22.1547,-22.152 -22.1533,22.152 z m 0,3987.784 22.1547,-22.152 -22.1547,-22.152 -22.1533,22.152 z m 0,-3544.692 22.1547,-22.1614 -22.1547,-22.152 -22.1533,22.152 z m 0,3101.6093 22.1547,-22.1613 -22.1547,-22.152 -22.1533,22.152 z m 0,-2658.5267 22.1547,-22.152 -22.1547,-22.152 -22.1533,22.152 z m 0,2215.4334 22.1547,-22.1507 -22.1547,-22.152 -22.1533,22.152 z m 0,-1772.3414 22.1547,-22.16 -22.1547,-22.152 -22.1533,22.152 z m 0,1329.2587 22.1547,-22.152 -22.1547,-22.1613 -22.1533,22.1613 z m 0,-886.1747 22.1547,-22.152 -22.1547,-22.152 -22.1533,22.152 z m 0,443.092 22.1547,-22.1613 -22.1547,-22.152 -22.1533,22.152 z m 0,3943.472 22.1547,22.1507 -22.1547,22.1613 -22.1533,-22.1613 z m 0,-7931.2613 22.1547,-22.15467 -22.1547,-22.15466 -22.1533,22.15466 z m 0,7488.168 22.1547,22.1613 -22.1547,22.152 -22.1533,-22.152 z m 0,-7045.08 22.1547,-22.152 -22.1547,-22.1613 -22.1533,22.1613 z m 0,6601.9973 22.1547,22.152 -22.1547,22.1507 -22.1533,-22.1507 z m 0,-6158.9146 22.1547,-22.152 -22.1547,-22.1507 -22.1533,22.1507 z m 0,7488.1733 22.1547,22.16 -22.1547,22.152 -22.1533,-22.152 z m 0,-8817.432 22.1547,-22.15333 -22.1547,-22.156 -22.1533,22.156 z m 440.7333,7089.3933 22.1547,-22.152 -22.1547,-22.1506 -22.1546,22.1506 z m 0,-5317.0413 22.1547,-22.152 -22.1547,-22.1613 -22.1546,22.1613 z m 0,4873.9587 22.1547,-22.1614 -22.1547,-22.1506 -22.1546,22.1506 z m 0,-4430.876 22.1547,-22.152 -22.1547,-22.152 -22.1546,22.152 z m 0,3987.784 22.1547,-22.152 -22.1547,-22.152 -22.1546,22.152 z m 0,-3544.692 22.1547,-22.1614 -22.1547,-22.152 -22.1546,22.152 z m 0,3101.6093 22.1547,-22.1613 -22.1547,-22.152 -22.1546,22.152 z m 0,-2658.5267 22.1547,-22.152 -22.1547,-22.152 -22.1546,22.152 z m 0,2215.4334 22.1547,-22.1507 -22.1547,-22.152 -22.1546,22.152 z m 0,-1772.3414 22.1547,-22.16 -22.1547,-22.152 -22.1546,22.152 z m 0,1329.2587 22.1547,-22.152 -22.1547,-22.1613 -22.1546,22.1613 z m 0,-886.1747 22.1547,-22.152 -22.1547,-22.152 -22.1546,22.152 z m 0,443.092 22.1547,-22.1613 -22.1547,-22.152 -22.1546,22.152 z m 0,3943.472 22.1547,22.1507 -22.1547,22.1613 -22.1546,-22.1613 z m 0,-7931.2613 22.1547,-22.15467 -22.1547,-22.15466 -22.1546,22.15466 z m 0,7488.168 22.1547,22.1613 -22.1547,22.152 -22.1546,-22.152 z m 0,-7045.08 22.1547,-22.152 -22.1547,-22.1613 -22.1546,22.1613 z m 0,6601.9973 22.1547,22.152 -22.1547,22.1507 -22.1546,-22.1507 z m 0,-6158.9146 22.1547,-22.152 -22.1547,-22.1507 -22.1546,22.1507 z m 0,7488.1733 22.1547,22.16 -22.1547,22.152 -22.1546,-22.152 z m 0,-8817.432 22.1547,-22.15333 -22.1547,-22.156 -22.1546,22.156 z m 877.8854,7089.3933 22.1533,-22.152 -22.1533,-22.1506 -22.1547,22.1506 z m 0,-5317.0413 22.1533,-22.152 -22.1533,-22.1613 -22.1547,22.1613 z m 0,4873.9587 22.1533,-22.1614 -22.1533,-22.1506 -22.1547,22.1506 z m 0,-4430.876 22.1533,-22.152 -22.1533,-22.152 -22.1547,22.152 z m 0,3987.784 22.1533,-22.152 -22.1533,-22.152 -22.1547,22.152 z m 0,-3544.692 22.1533,-22.1614 -22.1533,-22.152 -22.1547,22.152 z m 0,3101.6093 22.1533,-22.1613 -22.1533,-22.152 -22.1547,22.152 z m 0,-2658.5267 22.1533,-22.152 -22.1533,-22.152 -22.1547,22.152 z m 0,2215.4334 22.1533,-22.1507 -22.1533,-22.152 -22.1547,22.152 z m 0,-1772.3414 22.1533,-22.16 -22.1533,-22.152 -22.1547,22.152 z m 0,1329.2587 22.1533,-22.152 -22.1533,-22.1613 -22.1547,22.1613 z m 0,-886.1747 22.1533,-22.152 -22.1533,-22.152 -22.1547,22.152 z m 0,443.092 L 2951.528,4728 2929.3747,4705.848 2907.22,4728 Z m 0,3943.472 22.1533,22.1507 -22.1533,22.1613 -22.1547,-22.1613 z m 0,-7931.2613 22.1533,-22.15467 -22.1533,-22.15466 -22.1547,22.15466 z m 0,7488.168 22.1533,22.1613 -22.1533,22.152 -22.1547,-22.152 z m 0,-7045.08 22.1533,-22.152 -22.1533,-22.1613 -22.1547,22.1613 z m 0,6601.9973 22.1533,22.152 -22.1533,22.1507 -22.1547,-22.1507 z m 0,-6158.9146 22.1533,-22.152 -22.1533,-22.1507 -22.1547,22.1507 z m 0,7488.1733 22.1533,22.16 -22.1533,22.152 -22.1547,-22.152 z m 0,-8817.432 22.1533,-22.15333 -22.1533,-22.156 -22.1547,22.156 z m -443.088,7089.3933 22.1546,-22.152 -22.1546,-22.1506 -22.1534,22.1506 z m 0,-5317.0413 22.1546,-22.152 -22.1546,-22.1613 -22.1534,22.1613 z m 0,4873.9587 22.1546,-22.1614 -22.1546,-22.1506 -22.1534,22.1506 z m 0,-4430.876 22.1546,-22.152 -22.1546,-22.152 -22.1534,22.152 z m 0,3987.784 22.1546,-22.152 -22.1546,-22.152 -22.1534,22.152 z m 0,-3544.692 22.1546,-22.1614 -22.1546,-22.152 -22.1534,22.152 z m 0,3101.6093 22.1546,-22.1613 -22.1546,-22.152 -22.1534,22.152 z m 0,-2658.5267 22.1546,-22.152 -22.1546,-22.152 -22.1534,22.152 z m 0,2215.4334 22.1546,-22.1507 -22.1546,-22.152 -22.1534,22.152 z m 0,-1772.3414 22.1546,-22.16 -22.1546,-22.152 -22.1534,22.152 z m 0,1329.2587 22.1546,-22.152 -22.1546,-22.1613 -22.1534,22.1613 z m 0,-886.1747 22.1546,-22.152 -22.1546,-22.152 -22.1534,22.152 z m 0,443.092 22.1546,-22.1613 -22.1546,-22.152 -22.1534,22.152 z m 0,3943.472 22.1546,22.1507 -22.1546,22.1613 -22.1534,-22.1613 z m 0,-7931.2613 22.1546,-22.15467 -22.1546,-22.15466 -22.1534,22.15466 z m 0,7488.168 22.1546,22.1613 -22.1546,22.152 -22.1534,-22.152 z m 0,-7045.08 22.1546,-22.152 -22.1546,-22.1613 -22.1534,22.1613 z m 0,6601.9973 22.1546,22.152 -22.1546,22.1507 -22.1534,-22.1507 z m 0,-6158.9146 22.1546,-22.152 -22.1546,-22.1507 -22.1534,22.1507 z m 0,7488.1733 22.1546,22.16 -22.1546,22.152 -22.1534,-22.152 z m 0,-8817.432 22.1546,-22.15333 -22.1546,-22.156 -22.1534,22.156 z M 9132.596,6840.9773 9235.0533,6943.4333 9132.596,7045.9 9030.1293,6943.4333 Z m 0,-4225.9453 102.4573,-102.4653 L 9132.596,2410.1 9030.1293,2512.5667 Z m -0.01,3788.3907 96.928,96.928 -96.928,96.928 -96.9187,-96.928 z m 0,-3350.8454 96.928,-96.928 -96.928,-96.9186 -96.9187,96.9186 z m 0.01,2921.612 83.0787,83.0787 -83.0787,83.0787 -83.0787,-83.0787 z m 0,-2492.3693 83.0787,-83.0787 -83.0787,-83.0786 -83.0787,83.0786 z m -0.01,2060.352 72.0026,72.004 -72.0026,72.0027 -72.0027,-72.0027 z m 0,-1628.344 72.0026,-72.0027 -72.0026,-72.0026 -72.0027,72.0026 z m 0.01,1196.3373 60.9173,60.9267 -60.9173,60.9173 -60.9267,-60.9173 z m 0,-764.3306 60.9173,-60.9174 -60.9173,-60.9266 -60.9267,60.9266 z m 0,429.2426 L 9179.6733,4728 9132.596,4680.9227 9085.5187,4728 Z m -443.092,2508.9827 102.4667,102.4653 -102.4667,102.4574 -102.4573,-102.4574 z m 0,-5112.12 102.4667,-102.456 -102.4667,-102.4667 -102.4573,102.4667 z m 0,4674.5747 96.928,96.9186 -96.928,96.928 -96.928,-96.928 z m 0,-4237.02 96.928,-96.928 -96.928,-96.9187 -96.928,96.9187 z m 0.01,3807.7773 83.0787,83.0787 -83.0787,83.0786 -83.0786,-83.0786 z m 0,-3378.544 83.0787,-83.0787 -83.0787,-83.0786 -83.0786,83.0786 z m -0.01,2946.5373 72.0027,72.0027 -72.0027,72.0027 -72.0027,-72.0027 z m 0,-2514.52 72.0027,-72.004 -72.0027,-72.0026 -72.0027,72.0026 z m 0,2082.5027 60.9267,60.928 -60.9267,60.9267 -60.9267,-60.9267 z m 0,-1650.4973 60.9267,-60.9254 -60.9267,-60.928 -60.9267,60.928 z m 0.01,1221.264 47.0774,47.0773 -47.0774,47.0773 -47.0773,-47.0773 z m 0,-792.02 47.0774,-47.0774 -47.0774,-47.0773 -47.0773,47.0773 z m -0.01,432.0066 36,-36.0013 -36,-36.0013 -36.0013,36.0013 z m -443.084,3929.632 22.1533,22.1507 -22.1533,22.152 -22.1507,-22.152 z m 0,-7931.2613 22.1533,-22.15467 -22.1533,-22.15466 -22.1507,22.15466 z m 0,7488.168 22.1533,22.1613 -22.1533,22.152 -22.1507,-22.152 z m 0,-7045.08 22.1533,-22.152 -22.1533,-22.1613 -22.1507,22.1613 z m 0,6521.6827 102.4667,102.4666 -102.4667,102.4654 -102.4653,-102.4654 z m 0,-5998.2854 102.4667,-102.4666 -102.4667,-102.4654 -102.4653,102.4654 z m -0.01,5560.74 96.9267,96.928 -96.9267,96.92 -96.9187,-96.92 z m 0,-5123.1946 96.9267,-96.9187 -96.9267,-96.928 -96.9187,96.928 z m 0.01,4693.952 83.08,83.088 -83.08,83.0786 -83.0787,-83.0786 z m 0,-4264.7094 83.08,-83.0786 -83.08,-83.0787 -83.0787,83.0787 z m -0.01,3832.7027 72.0027,72.0027 -72.0027,72.0026 -71.9947,-72.0026 z m 0,-3400.696 72.0027,-72.0027 -72.0027,-72.0026 -71.9947,72.0026 z m 0.01,2968.6893 60.9173,60.9267 -60.9173,60.9173 -60.9267,-60.9173 z m 0,-2536.6813 60.9173,-60.9187 -60.9173,-60.9266 -60.9267,60.9266 z m 0,2107.4387 47.0787,47.0773 -47.0787,47.076 -47.076,-47.076 z m 0,-1678.196 47.0787,-47.0774 -47.0787,-47.0773 -47.076,47.0773 z m 0,1246.188 36.0013,36.0013 -36.0013,36.0013 -36,-36.0013 z m 0,-814.172 36.0013,-36.0014 -36.0013,-36.0013 -36,36.0013 z m 0,434.78 L 8274.1107,4728 8246.42,4700.3107 8218.7213,4728 Z m 0,4381.0173 22.1533,22.16 -22.1533,22.152 -22.1507,-22.152 z m 0,-8817.432 22.1533,-22.15333 -22.1533,-22.156 -22.1507,22.156 z m -443.0827,8374.3493 22.152,22.1507 -22.152,22.152 -22.1613,-22.152 z m 0,-7931.2613 22.152,-22.15467 -22.152,-22.15466 -22.1613,22.15466 z m -0.01,7407.864 102.4667,102.4653 -102.4667,102.4574 -102.456,-102.4574 z m 0,-6884.4707 102.4667,-102.4573 -102.4667,-102.4667 -102.456,102.4667 z m 0,6446.916 96.928,96.928 -96.928,96.928 -96.928,-96.928 z m 0,-6009.3613 96.928,-96.9293 -96.928,-96.928 -96.928,96.928 z m 0.01,5580.128 83.0787,83.0773 -83.0787,83.08 -83.0786,-83.08 z m 0,-5150.8867 83.0787,-83.0773 -83.0787,-83.0787 -83.0786,83.0787 z m -0.01,4718.8787 72.004,72.0027 -72.004,71.9933 -72.0027,-71.9933 z m 0,-4286.8707 72.004,-72.0026 -72.004,-72.0027 -72.0027,72.0027 z m 0,3854.8547 60.9267,60.9267 -60.9267,60.9266 -60.9267,-60.9266 z m 0,-3422.848 60.9267,-60.9267 -60.9267,-60.9266 -60.9267,60.9266 z m 0.01,2993.6053 47.0787,47.0867 -47.0787,47.0773 -47.0773,-47.0773 z m 0,-2564.3626 47.0787,-47.0774 -47.0787,-47.076 -47.0773,47.076 z m -0.01,2132.356 36.0013,36.0013 -36.0013,36 -36,-36 z m 0,-1700.348 36.0013,-36.0014 -36.0013,-36.0013 -36,36.0013 z m 0,1265.5666 27.6907,27.6987 -27.6907,27.6893 -27.6893,-27.6893 z m 0,-830.7866 27.6907,-27.6894 -27.6907,-27.6986 -27.6893,27.6986 z m 0.01,437.5546 22.152,-22.1613 -22.152,-22.152 -22.1613,22.152 z m -443.092,3863.1574 102.4667,102.4653 -102.4667,102.4667 -102.4666,-102.4667 z m 0,-7770.63737 102.4667,-102.464 -102.4667,-102.46266 -102.4666,102.46266 z m 0,7333.09197 96.9187,96.928 -96.9187,96.9187 -96.928,-96.9187 z m 0,-6895.5466 96.9187,-96.9187 -96.9187,-96.928 -96.928,96.928 z m 0,6466.304 83.0787,83.0786 -83.0787,83.0787 -83.0786,-83.0787 z m 0,-6037.06 83.0787,-83.08 -83.0787,-83.0787 -83.0786,83.0787 z m -0.01,5605.0533 72.0027,72.0013 -72.0027,72.004 -71.9933,-72.004 z m 0,-5173.0467 72.0027,-71.9933 -72.0027,-72.004 -71.9933,72.004 z m 0.01,4741.0387 60.9174,60.9173 -60.9174,60.9267 -60.9266,-60.9267 z m 0,-4309.0227 60.9174,-60.9266 -60.9174,-60.928 -60.9266,60.928 z m -0.01,3879.78 47.0773,47.0774 -47.0773,47.0773 -47.0773,-47.0773 z m 0,-3450.5466 47.0773,-47.0774 -47.0773,-47.0773 -47.0773,47.0773 z m 0.01,3018.54 36.0014,36.0013 -36.0014,36.0013 -36.0013,-36.0013 z m 0,-2586.524 36.0014,-36.0014 -36.0014,-36.0013 -36.0013,36.0013 z m 0,2151.7426 27.6894,27.6907 -27.6894,27.6893 -27.6986,-27.6893 z m 0,-1716.9613 27.6894,-27.6987 -27.6894,-27.6906 -27.6986,27.6906 z m -0.01,1279.4067 22.1613,22.1613 -22.1613,22.152 -22.152,-22.152 z m 0,-841.8614 22.1613,-22.152 -22.1613,-22.152 -22.152,22.152 z m 0,443.092 22.1613,-22.1613 -22.1613,-22.152 -22.152,22.152 z m -443.0827,3868.704 96.928,96.9187 -96.928,96.928 -96.9293,-96.928 z m 0,-7781.72263 96.928,-96.92534 -96.928,-96.92533 -96.9293,96.92533 z m 0.01,7352.48003 83.0786,83.0786 -83.0786,83.0787 -83.0787,-83.0787 z m 0,-6923.236 83.0786,-83.0787 -83.0786,-83.0787 -83.0787,83.0787 z m -0.01,6491.22 72.0027,72.0026 -72.0027,72.0027 -72.0026,-72.0027 z m 0,-6059.2134 72.0027,-72.0026 -72.0027,-72.0014 -72.0026,72.0014 z m 0,5627.2054 60.9267,60.9266 -60.9267,60.928 -60.9173,-60.928 z m 0,-5195.188 60.9267,-60.9267 -60.9267,-60.928 -60.9173,60.928 z m 0,4765.9453 47.0774,47.0773 -47.0774,47.0867 -47.0773,-47.0867 z m 0,-4336.712 47.0774,-47.0773 -47.0774,-47.0774 -47.0773,47.0774 z m 0,3904.7053 36.0014,36.0014 -36.0014,36.0013 -36.0013,-36.0013 z m 0,-3472.6986 36.0014,-36.0014 -36.0014,-36.0013 -36.0013,36.0013 z m 0,3037.9186 27.6987,27.6987 -27.6987,27.6893 -27.6906,-27.6893 z m 0,-2603.1373 27.6987,-27.6907 -27.6987,-27.6986 -27.6906,27.6986 z m 0,2165.592 22.152,22.152 -22.152,22.1507 -22.152,-22.1507 z m 0,-1728.0387 22.152,-22.16 -22.152,-22.152 -22.152,22.152 z m 0,1284.9454 22.152,22.1613 -22.152,22.152 -22.152,-22.152 z m 0,-841.8614 22.152,-22.152 -22.152,-22.152 -22.152,22.152 z m 0,443.092 22.152,-22.1613 -22.152,-22.152 -22.152,22.152 z m -443.0826,3882.544 83.0786,83.0787 -83.0786,83.0787 -83.0787,-83.0787 z m 0,-7809.4093 83.0786,-83.07867 -83.0786,-83.07866 -83.0787,83.07866 z m 0,7377.4027 71.9933,72.0026 -71.9933,72.0027 -72.004,-72.0027 z m 0,-6945.388 71.9933,-72.0027 -71.9933,-72.0027 -72.004,72.0027 z m 0,6513.3813 60.9266,60.9173 -60.9266,60.9267 -60.928,-60.9267 z m 0,-6081.3747 60.9266,-60.9266 -60.9266,-60.9267 -60.928,60.9267 z m -0.011,5652.132 47.0867,47.076 -47.0867,47.0774 -47.076,-47.0774 z m 0,-5222.8893 47.0867,-47.076 -47.0867,-47.0773 -47.076,47.0773 z m 0.011,4790.8813 36.0013,36.0014 -36.0013,35.992 -36.0014,-35.992 z m 0,-4358.8733 36.0013,-36.0013 -36.0013,-36.0014 -36.0014,36.0014 z m 0,3924.0933 27.6893,27.6894 -27.6893,27.6906 -27.7,-27.6906 z m 0,-3489.312 27.6893,-27.7 -27.6893,-27.6893 -27.7,27.6893 z m -0.011,3051.7574 22.1627,22.152 -22.1627,22.1613 -22.1507,-22.1613 z m 0,-2614.2134 22.1627,-22.152 -22.1627,-22.152 -22.1507,22.152 z m 0,2171.1307 22.1627,22.152 -22.1627,22.1507 -22.1507,-22.1507 z m 0,-1728.0387 22.1627,-22.16 -22.1627,-22.152 -22.1507,22.152 z m 0,1284.9454 22.1627,22.1613 -22.1627,22.152 -22.1507,-22.152 z m 0,-841.8614 22.1627,-22.152 -22.1627,-22.152 -22.1507,22.152 z m 0,443.092 L 6496.2227,4728 6474.06,4705.848 6451.9093,4728 Z m -443.0827,3893.62 72.0027,72.0027 -72.0027,72.0027 -72.0026,-72.0027 z m 0,-7831.56263 72.0027,-72.00134 -72.0027,-72.00133 -72.0026,72.00133 z m 0,7399.55603 60.9267,60.9266 -60.9267,60.9267 -60.9173,-60.9267 z m 0,-6967.5494 60.9267,-60.9173 -60.9267,-60.9267 -60.9173,60.9267 z m 0,6538.3067 47.0787,47.0773 -47.0787,47.0774 -47.0773,-47.0774 z m 0,-6109.0627 47.0787,-47.0786 -47.0787,-47.0774 -47.0773,47.0774 z m 0,5677.056 36.0014,36 -36.0014,36.0014 -36.0013,-36.0014 z m 0,-5245.04 36.0014,-36.0013 -36.0014,-36.0027 -36.0013,36.0027 z m 0,4810.2587 27.7,27.6987 -27.7,27.6893 -27.6893,-27.6893 z m 0,-4375.488 27.7,-27.6893 -27.7,-27.6894 -27.6893,27.6894 z m 0,3937.9427 22.152,22.152 -22.152,22.152 -22.1506,-22.152 z m 0,-3500.388 22.152,-22.1614 -22.152,-22.152 -22.1506,22.152 z m 0,3057.296 22.152,22.152 -22.152,22.1613 -22.1506,-22.1613 z m 0,-2614.2134 22.152,-22.152 -22.152,-22.152 -22.1506,22.152 z m 0,2171.1307 22.152,22.152 -22.152,22.1507 -22.1506,-22.1507 z m 0,-1728.0387 22.152,-22.16 -22.152,-22.152 -22.1506,22.152 z m 0,1284.9454 22.152,22.1613 -22.152,22.152 -22.1506,-22.152 z m 0,-841.8614 22.152,-22.152 -22.152,-22.152 -22.1506,22.152 z m 0,443.092 22.152,-22.1613 -22.152,-22.152 -22.1506,22.152 z m -443.0826,3904.696 60.9266,60.9267 -60.9266,60.9267 -60.9267,-60.9267 z m 0,-7853.71463 60.9266,-60.92534 -60.9266,-60.924 -60.9267,60.924 z m 0,7424.48133 47.0773,47.0773 -47.0773,47.0774 -47.0867,-47.0774 z m 0,-6995.2387 47.0773,-47.0773 -47.0773,-47.0867 -47.0867,47.0867 z m 0,6563.2227 36.0013,36.0013 -36.0013,36.0014 -36.0014,-36.0014 z m 0,-6131.216 36.0013,-36.0013 -36.0013,-36.0014 -36.0014,36.0014 z m 0,5696.4347 27.6893,27.6986 -27.6893,27.6907 -27.6987,-27.6907 z m 0,-5261.6534 27.6893,-27.6893 -27.6893,-27.7 -27.6987,27.7 z m -0.01,4824.1094 22.1614,22.1506 -22.1614,22.1614 -22.152,-22.1614 z m 0,-4386.564 22.1614,-22.152 -22.1614,-22.152 -22.152,22.152 z m 0,3943.48 22.1614,22.152 -22.1614,22.152 -22.152,-22.152 z m 0,-3500.388 22.1614,-22.1614 -22.1614,-22.152 -22.152,22.152 z m 0,3057.296 22.1614,22.152 -22.1614,22.1613 -22.152,-22.1613 z m 0,-2614.2134 22.1614,-22.152 -22.1614,-22.152 -22.152,22.152 z m 0,2171.1307 22.1614,22.152 -22.1614,22.1507 -22.152,-22.1507 z m 0,-1728.0387 22.1614,-22.16 -22.1614,-22.152 -22.152,22.152 z m 0,1284.9454 22.1614,22.1613 -22.1614,22.152 -22.152,-22.152 z m 0,-841.8614 22.1614,-22.152 -22.1614,-22.152 -22.152,22.152 z m 0,443.092 22.1614,-22.1613 -22.1614,-22.152 -22.152,22.152 z m 0.01,4336.7134 71.9933,72.0013 -71.9933,72.004 -72.0027,-72.004 z m 0,-8717.7427 71.9933,-72.00133 -71.9933,-72.00267 -72.0027,72.00267 z m 443.092,8706.6667 83.0786,83.0773 -83.0786,83.08 -83.0787,-83.08 z m 0,-8695.58937 83.0786,-83.07866 -83.0786,-83.07867 -83.0787,83.07867 z m 443.084,8681.73867 96.9186,96.928 -96.9186,96.92 -96.9294,-96.92 z m 0,-8667.892 96.9186,-96.92533 -96.9186,-96.92667 -96.9294,96.92667 z m 443.0826,8662.3547 102.4654,102.4653 -102.4654,102.4573 -102.4573,-102.4573 z m 0,-8656.81603 102.4654,-102.464 -102.4654,-102.464 -102.4573,102.464 z m 443.0827,8737.12133 22.1613,22.16 -22.1613,22.152 -22.152,-22.152 z m 0,-8817.432 22.1613,-22.15333 -22.1613,-22.156 -22.152,22.156 z m 443.1013,8817.432 22.152,22.16 -22.152,22.152 -22.1613,-22.152 z m 0,-8817.432 22.152,-22.15333 -22.152,-22.156 -22.1613,22.156 z m -2658.5346,8349.4227 47.0773,47.0773 -47.0773,47.0773 -47.0774,-47.0773 z m 0,-7881.4107 47.0773,-47.07867 -47.0773,-47.07733 -47.0774,47.07733 z m 0,7449.404 36.0013,36.0013 -36.0013,36.0014 -36.0014,-36.0014 z m 0,-7017.3907 36.0013,-36.0013 -36.0013,-36.0013 -36.0014,36.0013 z m 0,6582.6094 27.6986,27.6906 -27.6986,27.6987 -27.6907,-27.6987 z m 0,-6147.8374 27.6986,-27.6906 -27.6986,-27.6894 -27.6907,27.6894 z m 0,5710.284 22.152,22.16 -22.152,22.152 -22.152,-22.152 z m 0,-5272.7293 22.152,-22.152 -22.152,-22.1613 -22.152,22.1613 z m 0,4829.6467 22.152,22.1506 -22.152,22.1614 -22.152,-22.1614 z m 0,-4386.564 22.152,-22.152 -22.152,-22.152 -22.152,22.152 z m 0,3943.48 22.152,22.152 -22.152,22.152 -22.152,-22.152 z m 0,-3500.388 22.152,-22.1614 -22.152,-22.152 -22.152,22.152 z m 0,3057.296 22.152,22.152 -22.152,22.1613 -22.152,-22.1613 z m 0,-2614.2134 22.152,-22.152 -22.152,-22.152 -22.152,22.152 z m 0,2171.1307 22.152,22.152 -22.152,22.1507 -22.152,-22.1507 z m 0,-1728.0387 22.152,-22.16 -22.152,-22.152 -22.152,22.152 z m 0,1284.9454 22.152,22.1613 -22.152,22.152 -22.152,-22.152 z m 0,-841.8614 22.152,-22.152 -22.152,-22.152 -22.152,22.152 z m 0,4790.8814 60.9266,60.9253 -60.9266,60.9173 -60.9174,-60.9173 z m 0,-8739.89603 60.9266,-60.924 -60.9266,-60.92534 -60.9174,60.92534 z M 4701.72,8679.7827 l 36.0013,36.0013 -36.0013,36.0013 -36.0013,-36.0013 z m 0,-7903.56403 36.0013,-36.00134 -36.0013,-36.00133 -36.0013,36.00133 z m 0,7468.78403 27.6893,27.6986 -27.6893,27.6907 -27.7,-27.6907 z m 0,-7034.004 27.6893,-27.6907 -27.6893,-27.6987 -27.7,27.6987 z m -0.01,6596.4586 22.16,22.152 -22.16,22.1507 -22.152,-22.1507 z m 0,-6158.9146 22.16,-22.152 -22.16,-22.1507 -22.152,22.1507 z m 0,5715.8226 22.16,22.16 -22.16,22.152 -22.152,-22.152 z m 0,-5272.7293 22.16,-22.152 -22.16,-22.1613 -22.152,22.1613 z m 0,4829.6467 22.16,22.1506 -22.16,22.1614 -22.152,-22.1614 z m 0,-4386.564 22.16,-22.152 -22.16,-22.152 -22.152,22.152 z m 0,3943.48 22.16,22.152 -22.16,22.152 -22.152,-22.152 z m 0,-3500.388 22.16,-22.1614 -22.16,-22.152 -22.152,22.152 z m 0,3057.296 22.16,22.152 -22.16,22.1613 -22.152,-22.1613 z m 0,-2614.2134 22.16,-22.152 -22.16,-22.152 -22.152,22.152 z m 0,2171.1307 22.16,22.152 -22.16,22.1507 -22.152,-22.1507 z m 0,-1728.0387 22.16,-22.16 -22.16,-22.152 -22.152,22.152 z m -443.084,4824.1094 27.7,27.6893 -27.7,27.6907 -27.6894,-27.6907 z m 0,-7920.18403 27.7,-27.69334 -27.7,-27.692 -27.6894,27.692 z m 0.01,7482.62933 22.152,22.1613 -22.152,22.152 -22.1507,-22.152 z m 0,-7045.08 22.152,-22.152 -22.152,-22.1613 -22.1507,22.1613 z m 0,6601.9973 22.152,22.152 -22.152,22.1507 -22.1507,-22.1507 z m 0,-6158.9146 22.152,-22.152 -22.152,-22.1507 -22.1507,22.1507 z m 0,5715.8226 22.152,22.16 -22.152,22.152 -22.1507,-22.152 z m 0,-5272.7293 22.152,-22.152 -22.152,-22.1613 -22.1507,22.1613 z m 0,4829.6467 22.152,22.1506 -22.152,22.1614 -22.1507,-22.1614 z m 0,-4386.564 22.152,-22.152 -22.152,-22.152 -22.1507,22.152 z m 0,3943.48 22.152,22.152 -22.152,22.152 -22.1507,-22.152 z m 0,-3500.388 22.152,-22.1614 -22.152,-22.152 -22.1507,22.152 z m 0,3057.296 22.152,22.152 -22.152,22.1613 -22.1507,-22.1613 z m 0,-2614.2134 22.152,-22.152 -22.152,-22.152 -22.1507,22.152 z m -443.0827,5272.74 22.152,22.1507 -22.152,22.1613 -22.1613,-22.1613 z m 0,-7931.2613 22.152,-22.15467 -22.152,-22.15466 -22.1613,22.15466 z m 0,7488.168 22.152,22.1613 -22.152,22.152 -22.1613,-22.152 z m 0,-7045.08 22.152,-22.152 -22.152,-22.1613 -22.1613,22.1613 z m 0,6601.9973 22.152,22.152 -22.152,22.1507 -22.1613,-22.1507 z m 0,-6158.9146 22.152,-22.152 -22.152,-22.1507 -22.1613,22.1507 z m 0,5715.8226 22.152,22.16 -22.152,22.152 -22.1613,-22.152 z m 0,-5272.7293 22.152,-22.152 -22.152,-22.1613 -22.1613,22.1613 z m 0,4829.6467 22.152,22.1506 -22.152,22.1614 -22.1613,-22.1614 z m 0,-4386.564 22.152,-22.152 -22.152,-22.152 -22.1613,22.152 z m 0,3943.48 22.152,22.152 -22.152,22.152 -22.1613,-22.152 z m 0,-3500.388 22.152,-22.1614 -22.152,-22.152 -22.1613,22.152 z m -443.092,5715.8226 22.152,22.1507 -22.152,22.1613 -22.152,-22.1613 z m 0,-7931.2613 22.152,-22.15467 -22.152,-22.15466 -22.152,22.15466 z m 0,7488.168 22.152,22.1613 -22.152,22.152 -22.152,-22.152 z m 0,-7045.08 22.152,-22.152 -22.152,-22.1613 -22.152,22.1613 z m 0,6601.9973 22.152,22.152 -22.152,22.1507 -22.152,-22.1507 z m 0,-6158.9146 22.152,-22.152 -22.152,-22.1507 -22.152,22.1507 z m 0,5715.8226 22.152,22.16 -22.152,22.152 -22.152,-22.152 z m 0,-5272.7293 22.152,-22.152 -22.152,-22.1613 -22.152,22.1613 z m 0,4829.6467 22.152,22.1506 -22.152,22.1614 -22.152,-22.1614 z m 0,-4386.564 22.152,-22.152 -22.152,-22.152 -22.152,22.152 z m 0,6601.9973 22.152,22.16 -22.152,22.152 -22.152,-22.152 z m 0,-8817.432 22.152,-22.15333 -22.152,-22.156 -22.152,22.156 z m 443.0827,8811.8933 27.6893,27.6987 -27.6893,27.6907 -27.6893,-27.6907 z m 0,-8806.3533 27.6893,-27.69333 -27.6893,-27.69334 -27.6893,27.69334 z m 443.0827,8798.0507 36.0013,36.0013 -36.0013,36.0027 -36.0014,-36.0027 z m 0,-8789.7427 36.0013,-36.00133 -36.0013,-36.00134 -36.0014,36.00134 z M 4701.72,9111.8 l 47.0773,47.076 -47.0773,47.0773 -47.0867,-47.0773 z m 0,-8767.592 47.0773,-47.07733 -47.0773,-47.07734 -47.0867,47.07734 z m 3987.7933,8792.508 22.152,22.16 -22.152,22.152 -22.1613,-22.152 z m 0,-8817.432 22.152,-22.15333 -22.152,-22.156 -22.1613,22.156 z m 443.0827,8817.432 22.152,22.16 -22.152,22.152 -22.152,-22.152 z m 0,-8817.432 22.152,-22.15333 -22.152,-22.156 -22.152,22.156 z m 443.0933,8817.432 22.1507,22.16 -22.1507,22.152 -22.1613,-22.152 z m 0,-8817.432 22.1507,-22.15333 -22.1507,-22.156 -22.1613,22.156 z m 443.0827,8817.432 22.151,22.16 -22.151,22.152 -22.152,-22.152 z m 0,-8817.432 22.151,-22.15333 -22.151,-22.156 -22.152,22.156 z m 443.092,8817.432 22.151,22.16 -22.151,22.152 -22.161,-22.152 z m 0,-8817.432 22.151,-22.15333 -22.151,-22.156 -22.161,22.156 z m 443.083,8817.432 22.152,22.16 -22.152,22.152 -22.152,-22.152 z m 0,-8817.432 22.152,-22.15333 -22.152,-22.156 -22.152,22.156 z"
         id="path22" />
    </clipPath>
  </defs>
  <g
     id="layer-MC0"
     style="display:none">
    <path
       id="path1"
       d="M 0,7092 H 8748 V 0 H 0 Z"
       style="fill:none;stroke:#da2a37;stroke-width:1;stroke-linecap:butt;stroke-linejoin:round;stroke-miterlimit:10;stroke-dasharray:none;stroke-opacity:1"
       transform="matrix(1.3333333,0,0,-1.3333333,0,9456)" />
  </g>
  <g
     id="layer-MC1"
     style="display:none">
    <path
       id="path2"
       d="M 54,7002 H 8694 V 90 H 54 Z"
       style="fill:none;stroke:#2f4686;stroke-width:1;stroke-linecap:butt;stroke-linejoin:round;stroke-miterlimit:10;stroke-dasharray:none;stroke-opacity:1"
       transform="matrix(1.3333333,0,0,-1.3333333,0,9456)" />
  </g>
  <g
     id="layer-MC3"
     style="display:none">
    <path
       id="path3"
       d="M 126,6930 H 8622 V 162 H 126 Z"
       style="fill:none;stroke:#1aae48;stroke-width:1;stroke-linecap:butt;stroke-linejoin:round;stroke-miterlimit:10;stroke-dasharray:none;stroke-opacity:1"
       transform="matrix(1.3333333,0,0,-1.3333333,0,9456)" />
  </g>
  <g
     id="layer-MC4">
    <path
       id="path4"
       d="M 0,0 H 8748 V 7092 H 0 Z"
       style="fill:#141211;fill-opacity:1;fill-rule:nonzero;stroke:none"
       transform="matrix(1.3333333,0,0,-1.3333333,0,9456)" />
  </g>
  <g
     id="layer-MC5">
    <g
       mask="url(#mask14)"
       id="g21"
       clip-path="url(#clipPath22)">
      <path
         d="m 216.419,1535.492 16.616,16.614 -16.616,16.613 -16.615,-16.613 z m 0,3987.781 16.616,16.614 -16.616,16.621 -16.615,-16.621 z m 0,-3655.469 16.616,16.621 -16.616,16.613 -16.615,-16.613 z m 0,3323.157 16.616,16.614 -16.616,16.614 -16.615,-16.614 z m 0,-2990.838 16.616,16.614 -16.616,16.614 -16.615,-16.614 z m 0,2658.519 16.616,16.621 -16.616,16.614 -16.615,-16.614 z m 0,-2326.207 16.616,16.621 -16.616,16.614 -16.615,-16.614 z m 0,1993.895 16.616,16.614 -16.616,16.614 -16.615,-16.614 z m 0,-1661.575 16.616,16.613 -16.616,16.614 -16.615,-16.614 z m 0,1329.256 16.616,16.62 -16.616,16.614 -16.615,-16.614 z m 0,-996.944 16.616,16.614 -16.616,16.621 -16.615,-16.621 z m 0,664.631 16.616,16.614 -16.616,16.614 -16.615,-16.614 z m 0,-332.319 16.616,16.621 -16.616,16.614 L 199.804,3546 Z m 0,-2957.604 16.616,-16.613 -16.616,-16.621 -16.615,16.621 z m 0,5948.446 16.616,16.616 -16.616,16.616 -16.615,-16.616 z m 0,-5616.126 16.616,-16.621 -16.616,-16.614 -16.615,16.614 z m 0,5283.81 16.616,16.614 -16.616,16.621 -16.615,-16.621 z m 0,-4951.498 16.616,-16.614 -16.616,-16.613 -16.615,16.613 z m 0,4619.186 16.616,16.614 -16.616,16.613 -16.615,-16.613 z m 0,-5616.13 16.616,-16.62 -16.616,-16.614 -16.615,16.614 z m 0,6613.074 16.616,16.615 -16.616,16.617 -16.615,-16.617 z m 330.549,-5317.045 16.616,16.614 -16.616,16.613 -16.615,-16.613 z m 0,3987.781 16.616,16.614 -16.616,16.621 -16.615,-16.621 z m 0,-3655.469 16.616,16.621 -16.616,16.613 -16.615,-16.613 z m 0,3323.157 16.616,16.614 -16.616,16.614 -16.615,-16.614 z m 0,-2990.838 16.616,16.614 -16.616,16.614 -16.615,-16.614 z m 0,2658.519 16.616,16.621 -16.616,16.614 -16.615,-16.614 z m 0,-2326.207 16.616,16.621 -16.616,16.614 -16.615,-16.614 z m 0,1993.895 16.616,16.614 -16.616,16.614 -16.615,-16.614 z m 0,-1661.575 16.616,16.613 -16.616,16.614 -16.615,-16.614 z m 0,1329.256 16.616,16.62 -16.616,16.614 -16.615,-16.614 z m 0,-996.944 16.616,16.614 -16.616,16.621 -16.615,-16.621 z m 0,664.631 16.616,16.614 -16.616,16.614 -16.615,-16.614 z m 0,-332.319 16.616,16.621 -16.616,16.614 L 530.353,3546 Z m 0,-2957.604 16.616,-16.613 -16.616,-16.621 -16.615,16.621 z m 0,5948.446 16.616,16.616 -16.616,16.616 -16.615,-16.616 z m 0,-5616.126 16.616,-16.621 -16.616,-16.614 -16.615,16.614 z m 0,5283.81 16.616,16.614 -16.616,16.621 -16.615,-16.621 z m 0,-4951.498 16.616,-16.614 -16.616,-16.613 -16.615,16.613 z m 0,4619.186 16.616,16.614 -16.616,16.613 -16.615,-16.613 z m 0,-5616.13 16.616,-16.62 -16.616,-16.614 -16.615,16.614 z m 0,6613.074 16.616,16.615 -16.616,16.617 -16.615,-16.617 z m 0,-5317.045 16.616,16.614 -16.616,16.613 -16.615,-16.613 z m 0,3987.781 16.616,16.614 -16.616,16.621 -16.615,-16.621 z m 0,-3655.469 16.616,16.621 -16.616,16.613 -16.615,-16.613 z m 0,3323.157 16.616,16.614 -16.616,16.614 -16.615,-16.614 z m 0,-2990.838 16.616,16.614 -16.616,16.614 -16.615,-16.614 z m 0,2658.519 16.616,16.621 -16.616,16.614 -16.615,-16.614 z m 0,-2326.207 16.616,16.621 -16.616,16.614 -16.615,-16.614 z m 0,1993.895 16.616,16.614 -16.616,16.614 -16.615,-16.614 z m 0,-1661.575 16.616,16.613 -16.616,16.614 -16.615,-16.614 z m 0,1329.256 16.616,16.62 -16.616,16.614 -16.615,-16.614 z m 0,-996.944 16.616,16.614 -16.616,16.621 -16.615,-16.621 z m 0,664.631 16.616,16.614 -16.616,16.614 -16.615,-16.614 z m 0,-332.319 16.616,16.621 -16.616,16.614 L 530.353,3546 Z m 0,-2957.604 16.616,-16.613 -16.616,-16.621 -16.615,16.621 z m 0,5948.446 16.616,16.616 -16.616,16.616 -16.615,-16.616 z m 0,-5616.126 16.616,-16.621 -16.616,-16.614 -16.615,16.614 z m 0,5283.81 16.616,16.614 -16.616,16.621 -16.615,-16.621 z m 0,-4951.498 16.616,-16.614 -16.616,-16.613 -16.615,16.613 z m 0,4619.186 16.616,16.614 -16.616,16.613 -16.615,-16.613 z m 0,-5616.13 16.616,-16.62 -16.616,-16.614 -16.615,16.614 z m 0,6613.074 16.616,16.615 -16.616,16.617 -16.615,-16.617 z m 330.55,-5317.045 16.616,16.614 -16.616,16.613 -16.615,-16.613 z m 0,3987.781 16.616,16.614 -16.616,16.621 -16.615,-16.621 z m 0,-3655.469 16.616,16.621 -16.616,16.613 -16.615,-16.613 z m 0,3323.157 16.616,16.614 -16.616,16.614 -16.615,-16.614 z m 0,-2990.838 16.616,16.614 -16.616,16.614 -16.615,-16.614 z m 0,2658.519 16.616,16.621 -16.616,16.614 -16.615,-16.614 z m 0,-2326.207 16.616,16.621 -16.616,16.614 -16.615,-16.614 z m 0,1993.895 16.616,16.614 -16.616,16.614 -16.615,-16.614 z m 0,-1661.575 16.616,16.613 -16.616,16.614 -16.615,-16.614 z m 0,1329.256 16.616,16.62 -16.616,16.614 -16.615,-16.614 z m 0,-996.944 16.616,16.614 -16.616,16.621 -16.615,-16.621 z m 0,664.631 16.616,16.614 -16.616,16.614 -16.615,-16.614 z m 0,-332.319 16.616,16.621 -16.616,16.614 L 860.903,3546 Z m 0,-2957.604 16.616,-16.613 -16.616,-16.621 -16.615,16.621 z m 0,5948.446 16.616,16.616 -16.616,16.616 -16.615,-16.616 z m 0,-5616.126 16.616,-16.621 -16.616,-16.614 -16.615,16.614 z m 0,5283.81 16.616,16.614 -16.616,16.621 -16.615,-16.621 z m 0,-4951.498 16.616,-16.614 -16.616,-16.613 -16.615,16.613 z m 0,4619.186 16.616,16.614 -16.616,16.613 -16.615,-16.613 z m 0,-5616.13 16.616,-16.62 -16.616,-16.614 -16.615,16.614 z m 0,6613.074 16.616,16.615 -16.616,16.617 -16.615,-16.617 z m 0,-5317.045 16.616,16.614 -16.616,16.613 -16.615,-16.613 z m 0,3987.781 16.616,16.614 -16.616,16.621 -16.615,-16.621 z m 0,-3655.469 16.616,16.621 -16.616,16.613 -16.615,-16.613 z m 0,3323.157 16.616,16.614 -16.616,16.614 -16.615,-16.614 z m 0,-2990.838 16.616,16.614 -16.616,16.614 -16.615,-16.614 z m 0,2658.519 16.616,16.621 -16.616,16.614 -16.615,-16.614 z m 0,-2326.207 16.616,16.621 -16.616,16.614 -16.615,-16.614 z m 0,1993.895 16.616,16.614 -16.616,16.614 -16.615,-16.614 z m 0,-1661.575 16.616,16.613 -16.616,16.614 -16.615,-16.614 z m 0,1329.256 16.616,16.62 -16.616,16.614 -16.615,-16.614 z m 0,-996.944 16.616,16.614 -16.616,16.621 -16.615,-16.621 z m 0,664.631 16.616,16.614 -16.616,16.614 -16.615,-16.614 z m 0,-332.319 16.616,16.621 -16.616,16.614 L 860.903,3546 Z m 0,-2957.604 16.616,-16.613 -16.616,-16.621 -16.615,16.621 z m 0,5948.446 16.616,16.616 -16.616,16.616 -16.615,-16.616 z m 0,-5616.126 16.616,-16.621 -16.616,-16.614 -16.615,16.614 z m 0,5283.81 16.616,16.614 -16.616,16.621 -16.615,-16.621 z m 0,-4951.498 16.616,-16.614 -16.616,-16.613 -16.615,16.613 z m 0,4619.186 16.616,16.614 -16.616,16.613 -16.615,-16.613 z m 0,-5616.13 16.616,-16.62 -16.616,-16.614 -16.615,16.614 z m 0,6613.074 16.616,16.615 -16.616,16.617 -16.615,-16.617 z m 330.549,-5317.045 16.616,16.614 -16.616,16.613 -16.615,-16.613 z m 0,3987.781 16.616,16.614 -16.616,16.621 -16.615,-16.621 z m 0,-3655.469 16.616,16.621 -16.616,16.613 -16.615,-16.613 z m 0,3323.157 16.616,16.614 -16.616,16.614 -16.615,-16.614 z m 0,-2990.838 16.616,16.614 -16.616,16.614 -16.615,-16.614 z m 0,2658.519 16.616,16.621 -16.616,16.614 -16.615,-16.614 z m 0,-2326.207 16.616,16.621 -16.616,16.614 -16.615,-16.614 z m 0,1993.895 16.616,16.614 -16.616,16.614 -16.615,-16.614 z m 0,-1661.575 16.616,16.613 -16.616,16.614 -16.615,-16.614 z m 0,1329.256 16.616,16.62 -16.616,16.614 -16.615,-16.614 z m 0,-996.944 16.616,16.614 -16.616,16.621 -16.615,-16.621 z m 0,664.631 16.616,16.614 -16.616,16.614 -16.615,-16.614 z m 0,-332.319 16.616,16.621 -16.616,16.614 -16.615,-16.614 z m 0,-2957.604 16.616,-16.613 -16.616,-16.621 -16.615,16.621 z m 0,5948.446 16.616,16.616 -16.616,16.616 -16.615,-16.616 z m 0,-5616.126 16.616,-16.621 -16.616,-16.614 -16.615,16.614 z m 0,5283.81 16.616,16.614 -16.616,16.621 -16.615,-16.621 z m 0,-4951.498 16.616,-16.614 -16.616,-16.613 -16.615,16.613 z m 0,4619.186 16.616,16.614 -16.616,16.613 -16.615,-16.613 z m 0,-5616.13 16.616,-16.62 -16.616,-16.614 -16.615,16.614 z m 0,6613.074 16.616,16.615 -16.616,16.617 -16.615,-16.617 z m 7302.955,-6280.762 16.622,-16.613 -16.622,-16.614 -16.614,16.614 z m 0,5948.446 16.622,16.616 -16.622,16.616 -16.614,-16.616 z m 0,-5616.126 16.622,-16.621 -16.622,-16.614 -16.614,16.614 z m 0,5283.81 16.622,16.614 -16.622,16.621 -16.614,-16.621 z m 0,-4951.498 16.622,-16.614 -16.622,-16.613 -16.614,16.613 z m 0,4619.186 16.622,16.614 -16.622,16.613 -16.614,-16.613 z m 0,-4286.867 16.622,-16.62 -16.622,-16.614 -16.614,16.614 z m 0,3954.547 16.622,16.614 -16.622,16.621 -16.614,-16.621 z m 0,-3622.235 16.622,-16.613 -16.622,-16.621 -16.614,16.621 z m 0,3289.923 16.622,16.614 -16.622,16.614 -16.614,-16.614 z m 0,-2957.61 16.622,-16.614 -16.622,-16.614 -16.614,16.614 z m 0,2625.291 16.622,16.621 -16.622,16.614 -16.614,-16.614 z m 0,-2292.972 16.622,-16.614 -16.622,-16.621 -16.614,16.621 z m 0,1960.66 16.622,16.614 -16.622,16.614 -16.614,-16.614 z m 0,-1628.348 16.622,-16.614 -16.622,-16.613 -16.614,16.613 z m 0,1296.029 16.622,16.62 -16.622,16.614 -16.614,-16.614 z m 0,-963.709 16.622,-16.621 -16.622,-16.614 -16.614,16.614 z m 0,631.396 16.622,16.614 -16.622,16.614 -16.614,-16.614 z m -4652.42,-332.319 16.614,16.621 -16.614,16.614 -16.614,-16.614 z m 4652.42,-3289.916 16.622,-16.62 -16.622,-16.614 -16.614,16.614 z m 0,6613.074 16.622,16.615 -16.622,16.617 -16.614,-16.617 z M 8178.71,571.775 l 16.614,-16.613 -16.614,-16.614 -16.614,16.614 z m 0,5948.446 16.614,16.616 -16.614,16.616 -16.614,-16.616 z m 0,-5616.126 16.614,-16.621 -16.614,-16.614 -16.614,16.614 z m 0,5283.81 16.614,16.614 -16.614,16.621 -16.614,-16.621 z m 0,-4951.498 16.614,-16.614 -16.614,-16.613 -16.614,16.613 z m 0,4619.186 16.614,16.614 -16.614,16.613 -16.614,-16.613 z m 0,-4286.867 16.614,-16.62 -16.614,-16.614 -16.614,16.614 z m 0,3954.547 16.614,16.614 -16.614,16.621 -16.614,-16.621 z m 0,-3622.235 16.614,-16.613 -16.614,-16.621 -16.614,16.621 z m 0,3289.923 16.614,16.614 -16.614,16.614 -16.614,-16.614 z m 0,-2957.61 16.614,-16.614 -16.614,-16.614 -16.614,16.614 z m 0,2625.291 16.614,16.621 -16.614,16.614 -16.614,-16.614 z m 0,-2292.972 16.614,-16.614 -16.614,-16.621 -16.614,16.621 z m 0,1960.66 16.614,16.614 -16.614,16.614 -16.614,-16.614 z m 0,-1628.348 16.614,-16.614 -16.614,-16.613 -16.614,16.613 z m 0,1296.029 16.614,16.62 -16.614,16.614 -16.614,-16.614 z m -4652.427,-996.944 16.62,16.614 -16.62,16.621 -16.614,-16.621 z m 0,664.631 16.62,16.614 -16.62,16.614 -16.614,-16.614 z m 0,-332.319 16.62,16.621 -16.62,16.614 -16.614,-16.614 z m 4320.115,-2957.604 16.613,-16.613 -16.613,-16.614 -16.621,16.614 z m 0,5948.446 16.613,16.616 -16.613,16.616 -16.621,-16.616 z m 0,-5616.126 16.613,-16.621 -16.613,-16.614 -16.621,16.614 z m 0,5283.81 16.613,16.614 -16.613,16.621 -16.621,-16.621 z m 0,-4951.498 16.613,-16.614 -16.613,-16.613 -16.621,16.613 z m 0,4619.186 16.613,16.614 -16.613,16.613 -16.621,-16.613 z m 0,-4286.867 16.613,-16.62 -16.613,-16.614 -16.621,16.614 z m 0,3954.547 16.613,16.614 -16.613,16.621 -16.621,-16.621 z m 0,-3622.235 16.613,-16.613 -16.613,-16.621 -16.621,16.621 z m 0,3289.923 16.613,16.614 -16.613,16.614 -16.621,-16.614 z m 0,-2957.61 16.613,-16.614 -16.613,-16.614 -16.621,16.614 z m 0,2625.291 16.613,16.621 -16.613,16.614 -16.621,-16.614 z m 0,-2292.972 16.613,-16.614 -16.613,-16.621 -16.621,16.621 z m 0,1960.66 16.613,16.614 -16.613,16.614 -16.621,-16.614 z m -4652.421,-1661.575 16.614,16.613 -16.614,16.614 -16.613,-16.614 z m 0,1329.256 16.614,16.62 -16.614,16.614 -16.613,-16.614 z m 0,-996.944 16.614,16.614 -16.614,16.621 -16.613,-16.621 z m 0,664.631 16.614,16.614 -16.614,16.614 -16.613,-16.614 z m 0,-332.319 16.614,16.621 -16.614,16.614 -16.613,-16.614 z m 4320.102,-2957.604 16.613,-16.613 -16.613,-16.614 -16.614,16.614 z m 0,5948.446 16.613,16.616 -16.613,16.616 -16.614,-16.616 z m 0,-5616.126 16.613,-16.621 -16.613,-16.614 -16.614,16.614 z m 0,5283.81 16.613,16.614 -16.613,16.621 -16.614,-16.621 z m 0,-4951.498 16.613,-16.614 -16.613,-16.613 -16.614,16.613 z m 0,4619.186 16.613,16.614 -16.613,16.613 -16.614,-16.613 z m 0,-4286.867 16.613,-16.62 -16.613,-16.614 -16.614,16.614 z m 0,3954.547 16.613,16.614 -16.613,16.621 -16.614,-16.621 z m 996.943,-2054.123 76.85,76.85 -76.85,76.85 -76.849,-76.85 z m -996.943,-1568.112 16.613,-16.613 -16.613,-16.621 -16.614,16.621 z m 0,3289.923 16.613,16.614 -16.613,16.614 -16.614,-16.614 z m 0,-2957.61 16.613,-16.614 -16.613,-16.614 -16.614,16.614 z m 0,2625.291 16.613,16.621 -16.613,16.614 -16.614,-16.614 z m -4652.414,-2326.207 16.614,16.621 -16.614,16.614 -16.621,-16.614 z m 0,1993.895 16.614,16.614 -16.614,16.614 -16.621,-16.614 z m 0,-1661.575 16.614,16.613 -16.614,16.614 -16.621,-16.614 z m 0,1329.256 16.614,16.62 -16.614,16.614 -16.621,-16.614 z m 0,-996.944 16.614,16.614 -16.614,16.621 -16.621,-16.621 z m 0,664.631 16.614,16.614 -16.614,16.614 -16.621,-16.614 z m 0,-332.319 16.614,16.621 -16.614,16.614 -16.621,-16.614 z m 4320.102,-2957.604 16.613,-16.613 -16.613,-16.614 -16.621,16.614 z m 0,5948.446 16.613,16.616 -16.613,16.616 -16.621,-16.616 z m 0,-5616.126 16.613,-16.621 -16.613,-16.614 -16.621,16.614 z m 0,5283.81 16.613,16.614 -16.613,16.621 -16.621,-16.621 z m 0,-4951.498 16.613,-16.614 -16.613,-16.613 -16.621,16.613 z m 0,4619.186 16.613,16.614 -16.613,16.613 -16.621,-16.613 z m 0,-4286.867 16.613,-16.62 -16.613,-16.614 -16.621,16.614 z m 996.943,1721.805 76.843,-76.85 -76.843,-76.843 -76.85,76.843 z m 0,510.938 76.843,76.843 -76.843,76.85 -76.85,-76.85 z m -0.01,-328.165 72.696,72.696 -72.696,72.689 -72.689,-72.689 z m -996.936,2049.969 16.613,16.614 -16.613,16.621 -16.621,-16.621 z m 0,-3622.235 16.613,-16.613 -16.613,-16.621 -16.621,16.621 z m 0,3289.923 16.613,16.614 -16.613,16.614 -16.621,-16.614 z m -4652.421,-2990.838 16.614,16.614 -16.614,16.614 -16.614,-16.614 z m 0,2658.519 16.614,16.621 -16.614,16.614 -16.614,-16.614 z m 0,-2326.207 16.614,16.621 -16.614,16.614 -16.614,-16.614 z m 0,1993.895 16.614,16.614 -16.614,16.614 -16.614,-16.614 z m 0,-1661.575 16.614,16.613 -16.614,16.614 -16.614,-16.614 z m 0,1329.256 16.614,16.62 -16.614,16.614 -16.614,-16.614 z m 0,-996.944 16.614,16.614 -16.614,16.621 -16.614,-16.621 z m 0,664.631 16.614,16.614 -16.614,16.614 -16.614,-16.614 z m 0,-332.319 16.614,16.621 -16.614,16.614 -16.614,-16.614 z m 4320.101,-2957.604 16.614,-16.613 -16.614,-16.614 -16.614,16.614 z m 0,5948.446 16.614,16.616 -16.614,16.616 -16.614,-16.616 z m 996.944,-3562.003 76.85,-76.85 -76.85,-76.849 -76.849,76.849 z m 0,1175.564 76.85,76.849 -76.85,76.843 -76.849,-76.843 z m 0,-847.405 72.689,-72.696 -72.689,-72.689 -72.697,72.689 z m 0,519.239 72.689,72.696 -72.689,72.696 -72.697,-72.696 z m 0,-321.925 62.309,62.309 -62.309,62.309 -62.309,-62.309 z m -996.944,-2579.596 16.614,-16.621 -16.614,-16.614 -16.614,16.614 z m 0,5283.81 16.614,16.614 -16.614,16.621 -16.614,-16.621 z m 0,-4951.498 16.614,-16.614 -16.614,-16.613 -16.614,16.613 z m 0,4619.186 16.614,16.614 -16.614,16.613 -16.614,-16.613 z m 0,-4286.867 16.614,-16.62 -16.614,-16.614 -16.614,16.614 z m 0,3954.547 16.614,16.614 -16.614,16.621 -16.614,-16.621 z m -4652.416,-3655.469 16.616,16.621 -16.616,16.613 -16.616,-16.613 z m 0,3323.157 16.616,16.614 -16.616,16.614 -16.616,-16.614 z m 0,-2990.838 16.616,16.614 -16.616,16.614 -16.616,-16.614 z m 0,2658.519 16.616,16.621 -16.616,16.614 -16.616,-16.614 z m 0,-2326.207 16.616,16.621 -16.616,16.614 -16.616,-16.614 z m 0,1993.895 16.616,16.614 -16.616,16.614 -16.616,-16.614 z m 0,-1661.575 16.616,16.613 -16.616,16.614 -16.616,-16.614 z m 0,1329.256 16.616,16.62 -16.616,16.614 -16.616,-16.614 z m 0,-996.944 16.616,16.614 -16.616,16.621 -16.616,-16.621 z m 0,664.631 16.616,16.614 -16.616,16.614 -16.616,-16.614 z m 0,-332.319 16.616,16.621 -16.616,16.614 -16.616,-16.614 z m 0,-2957.604 16.616,-16.613 -16.616,-16.621 -16.616,16.621 z m 0,5948.446 16.616,16.616 -16.616,16.616 -16.616,-16.616 z m 0,-5616.126 16.616,-16.621 -16.616,-16.614 -16.616,16.614 z m 0,5283.81 16.616,16.614 -16.616,16.621 -16.616,-16.621 z m 0,-4951.498 16.616,-16.614 -16.616,-16.613 -16.616,16.613 z m 0,4619.186 16.616,16.614 -16.616,16.613 -16.616,-16.613 z m 0,-4320.101 16.616,16.614 -16.616,16.613 -16.616,-16.613 z m 0,3987.781 16.616,16.614 -16.616,16.621 -16.616,-16.621 z m 0,-5283.81 16.616,-16.62 -16.616,-16.614 -16.616,16.614 z m 0,6613.074 16.616,16.615 -16.616,16.617 -16.616,-16.617 z m 5317.048,-4226.638 76.842,-76.85 -76.842,-76.842 -76.85,76.842 z m 0,1840.195 76.842,76.85 -76.842,76.849 -76.85,-76.849 z m -0.01,-1512.029 72.697,-72.697 -72.697,-72.696 -72.689,72.696 z m 0,1183.87 72.697,72.696 -72.697,72.69 -72.689,-72.69 z m 0.01,-861.945 62.308,-62.309 -62.308,-62.309 -62.309,62.309 z m 0,540.013 62.308,62.309 -62.308,62.309 -62.309,-62.309 z m -0.01,-324.005 54.003,54.002 -54.003,54.002 L 7460.064,3546 Z M 6517.13,571.775 l 16.614,-16.613 -16.614,-16.614 -16.621,16.614 z m 0,5948.446 16.614,16.616 -16.614,16.616 -16.621,-16.616 z m 0,-5616.126 16.614,-16.621 -16.614,-16.614 -16.621,16.614 z m 0,5283.81 16.614,16.614 -16.614,16.621 -16.621,-16.621 z m 0,-4951.498 16.614,-16.614 -16.614,-16.613 -16.621,16.613 z m 664.624,1057.179 76.85,-76.849 -76.85,-76.85 -76.849,76.85 z m 0,2504.827 76.85,76.85 -76.85,76.842 -76.849,-76.842 z m 0,-2176.668 72.697,-72.689 -72.697,-72.696 -72.696,72.696 z m 0,1848.503 72.697,72.696 -72.697,72.696 -72.696,-72.696 z m 0,-1526.571 62.309,-62.309 -62.309,-62.309 -62.308,62.309 z m 0,1204.645 62.309,62.309 -62.309,62.309 -62.308,-62.309 z m 0,-880.639 54.002,-54.002 -54.002,-54.002 -54.002,54.002 z m 0,556.627 54.002,54.002 -54.002,54.002 -54.002,-54.002 z m 0,-324.005 45.696,45.695 -45.696,45.695 -45.695,-45.695 z m -664.624,2355.288 16.614,16.614 -16.614,16.613 -16.621,-16.613 z m -5309.068,-4320.101 16.616,16.614 -16.616,16.613 -16.615,-16.613 z m 0,3987.781 16.616,16.614 -16.616,16.621 -16.615,-16.621 z m 0,-3655.469 16.616,16.621 -16.616,16.613 -16.615,-16.613 z m 0,3323.157 16.616,16.614 -16.616,16.614 -16.615,-16.614 z m 0,-2990.838 16.616,16.614 -16.616,16.614 -16.615,-16.614 z m 0,2658.519 16.616,16.621 -16.616,16.614 -16.615,-16.614 z m 0,-2326.207 16.616,16.621 -16.616,16.614 -16.615,-16.614 z m 0,1993.895 16.616,16.614 -16.616,16.614 -16.615,-16.614 z m 0,-1661.575 16.616,16.613 -16.616,16.614 -16.615,-16.614 z m 0,1329.256 16.616,16.62 -16.616,16.614 -16.615,-16.614 z m 0,-996.944 16.616,16.614 -16.616,16.621 -16.615,-16.621 z m 0,664.631 16.616,16.614 -16.616,16.614 -16.615,-16.614 z m 0,-332.319 16.616,16.621 -16.616,16.614 -16.615,-16.614 z m 0,-2957.604 16.616,-16.613 -16.616,-16.621 -16.615,16.621 z m 0,5948.446 16.616,16.616 -16.616,16.616 -16.615,-16.616 z m 0,-5616.126 16.616,-16.621 -16.616,-16.614 -16.615,16.614 z m 0,5283.81 16.616,16.614 -16.616,16.621 -16.615,-16.621 z m 0,-4951.498 16.616,-16.614 -16.616,-16.613 -16.615,16.613 z m 0,4619.186 16.616,16.614 -16.616,16.613 -16.615,-16.613 z m 0,-5616.13 16.616,-16.62 -16.616,-16.614 -16.615,16.614 z m 0,6613.074 16.616,16.615 -16.616,16.617 -16.615,-16.617 z m 330.55,-5317.045 16.616,16.614 -16.616,16.613 -16.616,-16.613 z m 0,3987.781 16.616,16.614 -16.616,16.621 -16.616,-16.621 z m 0,-3655.469 16.616,16.621 -16.616,16.613 -16.616,-16.613 z m 0,3323.157 16.616,16.614 -16.616,16.614 -16.616,-16.614 z m 0,-2990.838 16.616,16.614 -16.616,16.614 -16.616,-16.614 z m 0,2658.519 16.616,16.621 -16.616,16.614 -16.616,-16.614 z m 0,-2326.207 16.616,16.621 -16.616,16.614 -16.616,-16.614 z m 0,1993.895 16.616,16.614 -16.616,16.614 -16.616,-16.614 z m 0,-1661.575 16.616,16.613 -16.616,16.614 -16.616,-16.614 z m 0,1329.256 16.616,16.62 -16.616,16.614 -16.616,-16.614 z m 0,-996.944 16.616,16.614 -16.616,16.621 -16.616,-16.621 z m 0,664.631 16.616,16.614 -16.616,16.614 -16.616,-16.614 z m 0,-332.319 16.616,16.621 -16.616,16.614 -16.616,-16.614 z m 0,-2957.604 16.616,-16.613 -16.616,-16.621 -16.616,16.621 z m 0,5948.446 16.616,16.616 -16.616,16.616 -16.616,-16.616 z m 0,-5616.126 16.616,-16.621 -16.616,-16.614 -16.616,16.614 z m 0,5283.81 16.616,16.614 -16.616,16.621 -16.616,-16.621 z m 0,-4951.498 16.616,-16.614 -16.616,-16.613 -16.616,16.613 z m 0,4619.186 16.616,16.614 -16.616,16.613 -16.616,-16.613 z m 0,-5616.13 16.616,-16.62 -16.616,-16.614 -16.616,16.614 z m 0,6613.074 16.616,16.615 -16.616,16.617 -16.616,-16.617 z m 658.414,-5317.045 16.615,16.614 -16.615,16.613 -16.616,-16.613 z m 0,3987.781 16.615,16.614 -16.615,16.621 -16.616,-16.621 z m 0,-3655.469 16.615,16.621 -16.615,16.613 -16.616,-16.613 z m 0,3323.157 16.615,16.614 -16.615,16.614 -16.616,-16.614 z m 0,-2990.838 16.615,16.614 -16.615,16.614 -16.616,-16.614 z m 0,2658.519 16.615,16.621 -16.615,16.614 -16.616,-16.614 z m 0,-2326.207 16.615,16.621 -16.615,16.614 -16.616,-16.614 z m 0,1993.895 16.615,16.614 -16.615,16.614 -16.616,-16.614 z m 0,-1661.575 16.615,16.613 -16.615,16.614 -16.616,-16.614 z m 0,1329.256 16.615,16.62 -16.615,16.614 -16.616,-16.614 z m 0,-996.944 16.615,16.614 -16.615,16.621 -16.616,-16.621 z m 0,664.631 16.615,16.614 -16.615,16.614 -16.616,-16.614 z m 0,-332.319 16.615,16.621 -16.615,16.614 L 2180.41,3546 Z m 0,-2957.604 16.615,-16.613 -16.615,-16.621 -16.616,16.621 z m 0,5948.446 16.615,16.616 -16.615,16.616 -16.616,-16.616 z m 0,-5616.126 16.615,-16.621 -16.615,-16.614 -16.616,16.614 z m 0,5283.81 16.615,16.614 -16.615,16.621 -16.616,-16.621 z m 0,-4951.498 16.615,-16.614 -16.615,-16.613 -16.616,16.613 z m 0,4619.186 16.615,16.614 -16.615,16.613 -16.616,-16.613 z m 0,-5616.13 16.615,-16.62 -16.615,-16.614 -16.616,16.614 z m 0,6613.074 16.615,16.615 -16.615,16.617 -16.616,-16.617 z m -332.316,-5317.045 16.616,16.614 -16.616,16.613 -16.615,-16.613 z m 0,3987.781 16.616,16.614 -16.616,16.621 -16.615,-16.621 z m 0,-3655.469 16.616,16.621 -16.616,16.613 -16.615,-16.613 z m 0,3323.157 16.616,16.614 -16.616,16.614 -16.615,-16.614 z m 0,-2990.838 16.616,16.614 -16.616,16.614 -16.615,-16.614 z m 0,2658.519 16.616,16.621 -16.616,16.614 -16.615,-16.614 z m 0,-2326.207 16.616,16.621 -16.616,16.614 -16.615,-16.614 z m 0,1993.895 16.616,16.614 -16.616,16.614 -16.615,-16.614 z m 0,-1661.575 16.616,16.613 -16.616,16.614 -16.615,-16.614 z m 0,1329.256 16.616,16.62 -16.616,16.614 -16.615,-16.614 z m 0,-996.944 16.616,16.614 -16.616,16.621 -16.615,-16.621 z m 0,664.631 16.616,16.614 -16.616,16.614 -16.615,-16.614 z m 0,-332.319 16.616,16.621 -16.616,16.614 -16.615,-16.614 z m 0,-2957.604 16.616,-16.613 -16.616,-16.621 -16.615,16.621 z m 0,5948.446 16.616,16.616 -16.616,16.616 -16.615,-16.616 z m 0,-5616.126 16.616,-16.621 -16.616,-16.614 -16.615,16.614 z m 0,5283.81 16.616,16.614 -16.616,16.621 -16.615,-16.621 z m 0,-4951.498 16.616,-16.614 -16.616,-16.613 -16.615,16.613 z m 0,4619.186 16.616,16.614 -16.616,16.613 -16.615,-16.613 z m 0,-5616.13 16.616,-16.62 -16.616,-16.614 -16.615,16.614 z m 0,6613.074 16.616,16.615 -16.616,16.617 -16.615,-16.617 z m 4984.732,-4891.27 76.843,-76.842 -76.843,-76.85 -76.85,76.85 z m 0,3169.459 76.843,76.849 -76.843,76.85 -76.85,-76.85 z m -0.01,-2841.293 72.696,-72.696 -72.696,-72.696 -72.689,72.696 z m 0,2513.134 72.696,72.696 -72.696,72.689 -72.689,-72.689 z m 0.01,-2191.209 62.309,-62.309 -62.309,-62.309 -62.309,62.309 z m 0,1869.277 62.309,62.309 -62.309,62.309 -62.309,-62.309 z m -0.01,-1545.264 54.002,-54.003 -54.002,-54.002 -54.002,54.002 z m 0,1221.258 54.002,54.002 -54.002,54.002 -54.002,-54.002 z m 0.01,-897.253 45.688,-45.695 -45.688,-45.688 -45.695,45.688 z m 0,573.248 45.688,45.688 -45.688,45.695 -45.695,-45.695 z m 0,-321.932 35.308,35.308 -35.308,35.308 -35.308,-35.308 z m -332.319,-1881.737 76.85,-76.849 -76.85,-76.843 -76.843,76.843 z m 0,3834.09 76.85,76.842 -76.85,76.85 -76.843,-76.85 z m 0,-3505.931 72.696,-72.689 -72.696,-72.696 -72.696,72.696 z m 0,3177.765 72.696,72.696 -72.696,72.689 -72.696,-72.689 z m 0.01,-2855.833 62.309,-62.309 -62.309,-62.309 -62.309,62.309 z m 0,2533.908 62.309,62.309 -62.309,62.309 -62.309,-62.309 z m -0.01,-2209.903 54.002,-54.002 -54.002,-54.002 -54.002,54.002 z m 0,1885.89 54.002,54.003 -54.002,54.002 -54.002,-54.002 z m 0,-1561.877 45.695,-45.696 -45.695,-45.695 -45.695,45.695 z m 0,1237.873 45.695,45.694 -45.695,45.696 -45.695,-45.696 z m 0.01,-915.948 35.308,-35.308 -35.308,-35.308 -35.308,35.308 z m 0,594.015 35.308,35.308 -35.308,35.308 -35.308,-35.308 z m -0.01,-324.005 27,27.001 -27,27.001 L 6490.122,3546 Z M 6184.81,571.775 l 16.615,-16.613 -16.615,-16.614 -16.613,16.614 z m 0,5948.446 16.615,16.616 -16.615,16.616 -16.613,-16.616 z m 0,-5616.126 16.615,-16.621 -16.615,-16.614 -16.613,16.614 z m 0,5283.81 16.615,16.614 -16.615,16.621 -16.613,-16.621 z m 0,-4891.262 76.85,-76.85 -76.85,-76.849 -76.849,76.849 z m 0,4498.714 76.85,76.85 -76.85,76.849 -76.849,-76.849 z m -0.01,-4170.555 72.695,-72.696 -72.695,-72.69 -72.689,72.69 z m 0,3842.396 72.695,72.689 -72.695,72.696 -72.689,-72.696 z m 0.01,-3520.464 62.31,-62.316 -62.31,-62.309 -62.309,62.309 z m 0,3198.532 62.31,62.309 -62.31,62.309 -62.309,-62.309 z m -0.01,-2874.527 54.002,-54.002 -54.002,-54.002 -53.996,54.002 z m 0,2550.522 54.002,54.002 -54.002,54.002 -53.996,-54.002 z m 0.01,-2226.517 45.688,-45.695 -45.688,-45.688 -45.695,45.688 z m 0,1902.511 45.688,45.689 -45.688,45.695 -45.695,-45.695 z m 0,-1580.579 35.309,-35.308 -35.309,-35.307 -35.307,35.307 z m 0,1258.647 35.309,35.308 -35.309,35.308 -35.307,-35.308 z m 0,-934.641 27.001,-27.001 -27.001,-27.001 -27,27.001 z m 0,610.629 27.001,27.001 -27.001,27.001 -27,-27.001 z m 0,-326.085 20.768,20.774 -20.768,20.767 -20.774,-20.767 z m 0,-3285.763 16.615,-16.62 -16.615,-16.614 -16.613,16.614 z m 0,6613.074 16.615,16.615 -16.615,16.617 -16.613,-16.617 z m -332.312,-6280.762 16.614,-16.613 -16.614,-16.614 -16.621,16.614 z m 0,5948.446 16.614,16.616 -16.614,16.616 -16.621,-16.616 z m -0.01,-5555.898 76.85,-76.849 -76.85,-76.843 -76.842,76.843 z m 0,5163.353 76.85,76.843 -76.85,76.85 -76.842,-76.85 z m 0,-4835.187 72.696,-72.696 -72.696,-72.696 -72.696,72.696 z m 0,4507.021 72.696,72.697 -72.696,72.696 -72.696,-72.696 z m 0.01,-4185.096 62.309,-62.308 -62.309,-62.31 -62.309,62.31 z m 0,3863.165 62.309,62.308 -62.309,62.309 -62.309,-62.309 z m -0.01,-3539.159 54.003,-54.002 -54.003,-53.995 -54.002,53.995 z m 0,3215.153 54.003,54.002 -54.003,54.002 -54.002,-54.002 z m 0,-2891.141 45.695,-45.695 -45.695,-45.695 -45.695,45.695 z m 0,2567.136 45.695,45.695 -45.695,45.695 -45.695,-45.695 z m 0.01,-2245.204 35.309,-35.315 -35.309,-35.308 -35.308,35.308 z m 0,1923.272 35.309,35.308 -35.309,35.307 -35.308,-35.307 z m -0.01,-1599.267 27.001,-27.001 -27.001,-27 -27,27 z m 0,1275.261 27.001,27.001 -27.001,27.001 -27,-27.001 z m 0,-949.175 20.768,-20.774 -20.768,-20.767 -20.767,20.767 z m 0,623.09 20.768,20.767 -20.768,20.774 -20.767,-20.774 z m 0.01,-328.166 16.614,16.621 -16.614,16.614 -16.621,-16.614 z m -332.319,-2897.368 76.85,-76.849 -76.85,-76.85 -76.85,76.85 z m 0,5827.978 76.85,76.848 -76.85,76.847 -76.85,-76.847 z m 0,-5499.819 72.689,-72.696 -72.689,-72.689 -72.696,72.689 z m 0,5171.66 72.689,72.689 -72.689,72.696 -72.696,-72.696 z m 0,-4849.728 62.309,-62.309 -62.309,-62.309 -62.309,62.309 z m 0,4527.795 62.309,62.31 -62.309,62.309 -62.309,-62.309 z m -0.01,-4203.79 54.002,-54.001 -54.002,-54.003 -53.995,54.003 z m 0,3879.785 54.002,53.995 -54.002,54.003 -53.995,-54.003 z m 0.01,-3555.779 45.688,-45.688 -45.688,-45.695 -45.695,45.695 z m 0,3231.767 45.688,45.695 -45.688,45.696 -45.695,-45.696 z m -0.01,-2909.835 35.308,-35.308 -35.308,-35.308 -35.308,35.308 z m 0,2587.91 35.308,35.308 -35.308,35.308 -35.308,-35.308 z m 0.01,-2263.905 27.001,-27.001 -27.001,-27.001 -27.001,27.001 z m 0,1939.893 27.001,27.001 -27.001,27.001 -27.001,-27.001 z m 0,-1613.807 20.767,-20.768 -20.767,-20.767 -20.774,20.767 z m 0,1287.721 20.767,20.774 -20.767,20.768 -20.774,-20.768 z m -0.01,-959.555 16.621,-16.621 -16.621,-16.614 -16.614,16.614 z m 0,631.396 16.621,16.614 -16.621,16.614 -16.614,-16.614 z m 0,-332.319 16.621,16.621 -16.621,16.614 -16.614,-16.614 z m -332.312,-2901.528 72.696,-72.689 -72.696,-72.696 -72.697,72.696 z m 0,5836.292 72.696,72.694 -72.696,72.694 -72.697,-72.694 z m 0.01,-5514.36 62.309,-62.309 -62.309,-62.309 -62.309,62.309 z m 0,5192.427 62.309,62.309 -62.309,62.309 -62.309,-62.309 z m -0.01,-4868.415 54.002,-54.002 -54.002,-54.002 -54.002,54.002 z m 0,4544.41 54.002,54.002 -54.002,54.001 -54.002,-54.001 z m 0,-4220.404 45.695,-45.695 -45.695,-45.696 -45.688,45.696 z m 0,3896.391 45.695,45.695 -45.695,45.696 -45.688,-45.696 z m 0,-3574.459 35.308,-35.308 -35.308,-35.315 -35.308,35.315 z m 0,3252.534 35.308,35.308 -35.308,35.308 -35.308,-35.308 z m 0,-2928.529 27.001,-27.001 -27.001,-27.001 -27.001,27.001 z m 0,2604.524 27.001,27.001 -27.001,27.001 -27.001,-27.001 z m 0,-2278.439 20.774,-20.774 -20.774,-20.767 -20.768,20.767 z m 0,1952.353 20.774,20.768 -20.774,20.774 -20.768,-20.774 z m 0,-1624.194 16.614,-16.614 -16.614,-16.613 -16.614,16.613 z m 0,1296.029 16.614,16.62 -16.614,16.614 -16.614,-16.614 z m 0,-963.709 16.614,-16.621 -16.614,-16.614 -16.614,16.614 z m 0,631.396 16.614,16.614 -16.614,16.614 -16.614,-16.614 z m 0,-332.319 16.614,16.621 -16.614,16.614 -16.614,-16.614 z m -332.312,-2911.908 62.309,-62.309 -62.309,-62.309 -62.309,62.309 z m 0,5857.057 62.309,62.309 -62.309,62.309 -62.309,-62.309 z m 0,-5533.052 53.995,-54.002 -53.995,-54.002 -54.003,54.002 z m 0,5209.041 53.995,54.002 -53.995,54.002 -54.003,-54.002 z m 0,-4885.036 45.695,-45.688 -45.695,-45.695 -45.696,45.695 z m 0,4561.031 45.695,45.695 -45.695,45.695 -45.696,-45.695 z m -0.01,-4239.099 35.315,-35.307 -35.315,-35.308 -35.307,35.308 z m 0,3917.167 35.315,35.307 -35.315,35.308 -35.307,-35.308 z m 0.01,-3593.161 27.001,-27.001 -27.001,-26.994 -27.001,26.994 z m 0,3269.155 27.001,27.001 -27.001,27.001 -27.001,-27.001 z m 0,-2943.07 20.767,-20.767 -20.767,-20.768 -20.775,20.768 z m 0,2616.984 20.767,20.775 -20.767,20.767 -20.775,-20.767 z m -0.01,-2288.818 16.622,-16.614 -16.622,-16.621 -16.613,16.621 z m 0,1960.66 16.622,16.614 -16.622,16.614 -16.613,-16.614 z m 0,-1628.348 16.622,-16.614 -16.622,-16.613 -16.613,16.613 z m 0,1296.029 16.622,16.62 -16.622,16.614 -16.613,-16.614 z m 0,-963.709 16.622,-16.621 -16.622,-16.614 -16.613,16.614 z m 0,631.396 16.622,16.614 -16.622,16.614 -16.613,-16.614 z m 0,-332.319 16.622,16.621 -16.622,16.614 -16.613,-16.614 z m -332.312,-2920.215 54.002,-54.002 -54.002,-54.002 -54.002,54.002 z m 0,5873.672 54.002,54.001 -54.002,54.001 -54.002,-54.001 z m 0,-5549.667 45.695,-45.695 -45.695,-45.695 -45.688,45.695 z m 0,5225.662 45.695,45.688 -45.695,45.695 -45.688,-45.695 z m 0,-4903.73 35.309,-35.308 -35.309,-35.308 -35.308,35.308 z m 0,4581.797 35.309,35.309 -35.309,35.308 -35.308,-35.308 z m 0,-4257.792 27.001,-27 -27.001,-27.001 -27.001,27.001 z m 0,3933.78 27.001,27.001 -27.001,27.002 -27.001,-27.002 z m 0,-3607.694 20.775,-20.774 -20.775,-20.767 -20.767,20.767 z m 0,3281.616 20.775,20.767 -20.775,20.767 -20.767,-20.767 z m 0,-2953.457 16.614,-16.614 -16.614,-16.614 -16.613,16.614 z m 0,2625.291 16.614,16.621 -16.614,16.614 -16.613,-16.614 z m 0,-2292.972 16.614,-16.614 -16.614,-16.621 -16.613,16.621 z m 0,1960.66 16.614,16.614 -16.614,16.614 -16.613,-16.614 z m 0,-1628.348 16.614,-16.614 -16.614,-16.613 -16.613,16.613 z m 0,1296.029 16.614,16.62 -16.614,16.614 -16.613,-16.614 z m 0,-963.709 16.614,-16.621 -16.614,-16.614 -16.613,16.614 z m 0,631.396 16.614,16.614 -16.614,16.614 -16.613,-16.614 z m 0,-332.319 16.614,16.621 -16.614,16.614 L 4506.61,3546 Z m -332.312,-2928.522 45.695,-45.695 -45.695,-45.695 -45.695,45.695 z m 0,5890.286 45.695,45.694 -45.695,45.693 -45.695,-45.693 z m 0,-5568.361 35.308,-35.308 -35.308,-35.308 -35.315,35.308 z m 0,5246.429 35.308,35.308 -35.308,35.315 -35.315,-35.315 z m 0,-4922.417 27.001,-27.001 -27.001,-27.001 -27.001,27.001 z m 0,4598.412 27.001,27.001 -27.001,27.001 -27.001,-27.001 z m 0,-4272.326 20.767,-20.774 -20.767,-20.768 -20.774,20.768 z m 0,3946.24 20.767,20.767 -20.767,20.775 -20.774,-20.775 z m -0.01,-3618.082 16.621,-16.613 -16.621,-16.621 -16.614,16.621 z m 0,3289.923 16.621,16.614 -16.621,16.614 -16.614,-16.614 z m 0,-2957.61 16.621,-16.614 -16.621,-16.614 -16.614,16.614 z m 0,2625.291 16.621,16.621 -16.621,16.614 -16.614,-16.614 z m 0,-2292.972 16.621,-16.614 -16.621,-16.621 -16.614,16.621 z m 0,1960.66 16.621,16.614 -16.621,16.614 -16.614,-16.614 z m 0,-1628.348 16.621,-16.614 -16.621,-16.613 -16.614,16.613 z m 0,1296.029 16.621,16.62 -16.621,16.614 -16.614,-16.614 z m 0,-963.709 16.621,-16.621 -16.621,-16.614 -16.614,16.614 z m 0,631.396 16.621,16.614 -16.621,16.614 -16.614,-16.614 z m 0,-332.319 16.621,16.621 -16.621,16.614 -16.614,-16.614 z m 0.01,-3252.535 53.995,-54.001 -53.995,-54.003 -54.002,54.003 z m 0,6538.307 53.995,54.001 -53.995,54.002 -54.002,-54.002 z m 332.319,-6530 62.309,-62.308 -62.309,-62.31 -62.309,62.31 z m 0,6521.692 62.309,62.309 -62.309,62.309 -62.309,-62.309 z m 332.313,-6511.304 72.689,-72.696 -72.689,-72.69 -72.697,72.69 z m 0,6500.919 72.689,72.694 -72.689,72.695 -72.697,-72.695 z m 332.312,-6496.766 76.849,-76.849 -76.849,-76.843 -76.843,76.843 z m 0,6492.612 76.849,76.848 -76.849,76.848 -76.843,-76.848 z m 332.312,-6552.841 16.621,-16.62 -16.621,-16.614 -16.614,16.614 z m 0,6613.074 16.621,16.615 -16.621,16.617 -16.614,-16.617 z m 332.326,-6613.074 16.614,-16.62 -16.614,-16.614 -16.621,16.614 z m 0,6613.074 16.614,16.615 -16.614,16.617 -16.621,-16.617 z M 3858.602,590.47 l 35.308,-35.308 -35.308,-35.308 -35.308,35.308 z m 0,5911.058 35.308,35.309 -35.308,35.308 -35.308,-35.308 z m 0,-5587.053 27.001,-27.001 -27.001,-27.001 -27.001,27.001 z m 0,5263.043 27.001,27.001 -27.001,27.001 -27.001,-27.001 z m 0,-4936.957 20.774,-20.768 -20.774,-20.774 -20.768,20.774 z m 0,4610.878 20.774,20.768 -20.774,20.767 -20.768,-20.767 z m 0,-4282.713 16.614,-16.62 -16.614,-16.614 -16.614,16.614 z m 0,3954.547 16.614,16.614 -16.614,16.621 -16.614,-16.621 z m 0,-3622.235 16.614,-16.613 -16.614,-16.621 -16.614,16.621 z m 0,3289.923 16.614,16.614 -16.614,16.614 -16.614,-16.614 z m 0,-2957.61 16.614,-16.614 -16.614,-16.614 -16.614,16.614 z m 0,2625.291 16.614,16.621 -16.614,16.614 -16.614,-16.614 z m 0,-2292.972 16.614,-16.614 -16.614,-16.621 -16.614,16.621 z m 0,1960.66 16.614,16.614 -16.614,16.614 -16.614,-16.614 z m 0,-1628.348 16.614,-16.614 -16.614,-16.613 -16.614,16.613 z m 0,1296.029 16.614,16.62 -16.614,16.614 -16.614,-16.614 z m 0,-963.709 16.614,-16.621 -16.614,-16.614 -16.614,16.614 z m 0,631.396 16.614,16.614 -16.614,16.614 -16.614,-16.614 z m 0,-3593.161 45.695,-45.694 -45.695,-45.688 -45.688,45.688 z m 0,6554.922 45.695,45.693 -45.695,45.694 -45.688,-45.694 z M 3526.29,582.163 l 27.001,-27.001 -27.001,-27.001 -27.001,27.001 z m 0,5927.673 27.001,27.001 -27.001,27.001 -27.001,-27.001 z m 0,-5601.588 20.767,-20.774 -20.767,-20.768 -20.775,20.768 z m 0,5275.503 20.767,20.768 -20.767,20.774 -20.775,-20.774 z m -0.01,-4947.344 16.62,-16.614 -16.62,-16.613 -16.614,16.613 z m 0,4619.186 16.62,16.614 -16.62,16.613 -16.614,-16.613 z m 0,-4286.867 16.62,-16.62 -16.62,-16.614 -16.614,16.614 z m 0,3954.547 16.62,16.614 -16.62,16.621 -16.614,-16.621 z m 0,-3622.235 16.62,-16.613 -16.62,-16.621 -16.614,16.621 z m 0,3289.923 16.62,16.614 -16.62,16.614 -16.614,-16.614 z m 0,-2957.61 16.62,-16.614 -16.62,-16.614 -16.614,16.614 z m 0,2625.291 16.62,16.621 -16.62,16.614 -16.614,-16.614 z m 0,-2292.972 16.62,-16.614 -16.62,-16.621 -16.614,16.621 z m 0,1960.66 16.62,16.614 -16.62,16.614 -16.614,-16.614 z m 0,-1628.348 16.62,-16.614 -16.62,-16.613 -16.614,16.613 z m 0,1296.029 16.62,16.62 -16.62,16.614 -16.614,-16.614 z m -332.31,-3618.082 20.775,-20.767 -20.775,-20.768 -20.767,20.768 z m 0,5940.138 20.775,20.77 -20.775,20.769 -20.767,-20.769 z m 0.01,-5611.972 16.614,-16.621 -16.614,-16.614 -16.613,16.614 z m 0,5283.81 16.614,16.614 -16.614,16.621 -16.613,-16.621 z m 0,-4951.498 16.614,-16.614 -16.614,-16.613 -16.613,16.613 z m 0,4619.186 16.614,16.614 -16.614,16.613 -16.613,-16.613 z m 0,-4286.867 16.614,-16.62 -16.614,-16.614 -16.613,16.614 z m 0,3954.547 16.614,16.614 -16.614,16.621 -16.613,-16.621 z m 0,-3622.235 16.614,-16.613 -16.614,-16.621 -16.613,16.621 z m 0,3289.923 16.614,16.614 -16.614,16.614 -16.613,-16.614 z m 0,-2957.61 16.614,-16.614 -16.614,-16.614 -16.613,16.614 z m 0,2625.291 16.614,16.621 -16.614,16.614 -16.613,-16.614 z m 0,-2292.972 16.614,-16.614 -16.614,-16.621 -16.613,16.621 z m 0,1960.66 16.614,16.614 -16.614,16.614 -16.613,-16.614 z m -332.312,-3954.555 16.614,-16.613 -16.614,-16.621 -16.621,16.621 z m 0,5948.446 16.614,16.616 -16.614,16.616 -16.621,-16.616 z m 0,-5616.126 16.614,-16.621 -16.614,-16.614 -16.621,16.614 z m 0,5283.81 16.614,16.614 -16.614,16.621 -16.621,-16.621 z m 0,-4951.498 16.614,-16.614 -16.614,-16.613 -16.621,16.613 z m 0,4619.186 16.614,16.614 -16.614,16.613 -16.621,-16.613 z m 0,-4286.867 16.614,-16.62 -16.614,-16.614 -16.621,16.614 z m 0,3954.547 16.614,16.614 -16.614,16.621 -16.621,-16.621 z m 0,-3622.235 16.614,-16.613 -16.614,-16.621 -16.621,16.621 z m 0,3289.923 16.614,16.614 -16.614,16.614 -16.621,-16.614 z m 0,-2957.61 16.614,-16.614 -16.614,-16.614 -16.621,16.614 z m 0,2625.291 16.614,16.621 -16.614,16.614 -16.621,-16.614 z m -332.319,-4286.867 16.614,-16.613 -16.614,-16.621 -16.614,16.621 z m 0,5948.446 16.614,16.616 -16.614,16.616 -16.614,-16.616 z m 0,-5616.126 16.614,-16.621 -16.614,-16.614 -16.614,16.614 z m 0,5283.81 16.614,16.614 -16.614,16.621 -16.614,-16.621 z m 0,-4951.498 16.614,-16.614 -16.614,-16.613 -16.614,16.613 z m 0,4619.186 16.614,16.614 -16.614,16.613 -16.614,-16.613 z m 0,-4286.867 16.614,-16.62 -16.614,-16.614 -16.614,16.614 z m 0,3954.547 16.614,16.614 -16.614,16.621 -16.614,-16.621 z m 0,-3622.235 16.614,-16.613 -16.614,-16.621 -16.614,16.621 z m 0,3289.923 16.614,16.614 -16.614,16.614 -16.614,-16.614 z m 0,-4951.498 16.614,-16.62 -16.614,-16.614 -16.614,16.614 z m 0,6613.074 16.614,16.615 -16.614,16.617 -16.614,-16.617 z m 332.312,-6608.92 20.767,-20.774 -20.767,-20.768 -20.767,20.768 z m 0,6604.765 20.767,20.77 -20.767,20.77 -20.767,-20.77 z m 332.312,-6598.538 27.001,-27.001 -27.001,-27.002 -27.001,27.002 z m 0,6592.307 27.001,27.001 -27.001,27.001 -27.001,-27.001 z m 332.32,-6584.001 35.308,-35.307 -35.308,-35.308 -35.315,35.308 z m 0,6575.694 35.308,35.308 -35.308,35.308 -35.315,-35.308 z m 2990.845,-6594.381 16.614,-16.62 -16.614,-16.614 -16.621,16.614 z m 0,6613.074 16.614,16.615 -16.614,16.617 -16.621,-16.617 z m 332.312,-6613.074 16.614,-16.62 -16.614,-16.614 -16.614,16.614 z m 0,6613.074 16.614,16.615 -16.614,16.617 -16.614,-16.617 z m 332.32,-6613.074 16.613,-16.62 -16.613,-16.614 -16.621,16.614 z m 0,6613.074 16.613,16.615 -16.613,16.617 -16.621,-16.617 z m 332.312,-6613.074 16.613,-16.62 -16.613,-16.614 -16.614,16.614 z m 0,6613.074 16.613,16.615 -16.613,16.617 -16.614,-16.617 z m 332.319,-6613.074 16.613,-16.62 -16.613,-16.614 -16.621,16.614 z m 0,6613.074 16.613,16.615 -16.613,16.617 -16.621,-16.617 z m 332.312,-6613.074 16.614,-16.62 -16.614,-16.614 -16.614,16.614 z m 0,6613.074 16.614,16.615 -16.614,16.617 -16.614,-16.617 z"
         transform="matrix(1.3333333,0,0,-1.3333333,0,9456)"
         style="fill:url(#radialGradient21);stroke:none"
         id="path21" />
    </g>
  </g>
</svg>
